<?xml version="1.0" encoding="UTF-8" standalone="no"?>
<svg
   width="16"
   height="16"
   fill="none"
   version="1.1"
   id="svg1"
   sodipodi:docname="folder_open_route.svg"
   inkscape:version="1.3 (0e150ed6c4, 2023-07-21)"
   xmlns:inkscape="http://www.inkscape.org/namespaces/inkscape"
   xmlns:sodipodi="http://sodipodi.sourceforge.net/DTD/sodipodi-0.dtd"
   xmlns="http://www.w3.org/2000/svg"
   xmlns:svg="http://www.w3.org/2000/svg">
  <defs
     id="defs1" />
  <sodipodi:namedview
     id="namedview1"
     pagecolor="#ffffff"
     bordercolor="#000000"
     borderopacity="0.25"
     inkscape:showpageshadow="2"
     inkscape:pageopacity="0.0"
     inkscape:pagecheckerboard="0"
     inkscape:deskcolor="#d1d1d1"
     inkscape:zoom="53.8125"
     inkscape:cx="8.8362369"
     inkscape:cy="8"
     inkscape:window-width="1920"
     inkscape:window-height="1057"
     inkscape:window-x="1912"
     inkscape:window-y="-8"
     inkscape:window-maximized="1"
     inkscape:current-layer="svg1" />
  <path
     id="path1"
     d="M 2.4003906 2 C 1.6303914 2 1.0078125 2.6190008 1.0078125 3.375 L 1 11.625 C 1 12.380999 1.6303914 13 2.4003906 13 L 6.140625 13 C 5.6171158 12.467937 5.2049167 12.024083 4.9082031 11.625 L 2.4003906 11.625 L 2.4003906 4.75 L 13.599609 4.75 L 13.599609 6.3261719 C 13.696309 6.4223214 13.785602 6.5102143 13.888672 6.6132812 C 14.313793 7.0384055 14.683267 7.4082562 15 7.7421875 L 15 4.75 C 15 3.9940008 14.369609 3.375 13.599609 3.375 L 8 3.375 L 6.5996094 2 L 2.4003906 2 z M 7.5820312 11.625 C 7.6642328 11.734194 7.7936287 11.806641 7.9414062 11.806641 C 8.0895163 11.806641 8.2200081 11.734614 8.3027344 11.625 L 7.5820312 11.625 z M 10.798828 11.625 C 10.808809 11.638304 10.818438 11.651646 10.830078 11.664062 C 11.001004 11.846332 11.28642 11.856478 11.46875 11.685547 L 11.533203 11.625 L 10.798828 11.625 z "
     style="fill:#80cbc4;fill-opacity:1" />
  <g
     id="SVGRepo_iconCarrier"
     transform="matrix(0.52529251,0,0,0.52529251,3.9772895,3.8448854)"
     style="fill:#719600;fill-opacity:1">
    <path
       fill-rule="evenodd"
       clip-rule="evenodd"
       d="M 6.14214,6.14214 C 8.90356,3.38071 10.2843,2 12,2 13.7157,2 15.0964,3.38071 17.8579,6.14214 20.6193,8.90356 22,10.2843 22,12 22,13.7157 20.6193,15.0964 17.8579,17.8579 15.0964,20.6193 13.7157,22 12,22 10.2843,22 8.90356,20.6193 6.14214,17.8579 3.38071,15.0964 2,13.7157 2,12 2,10.2843 3.38071,8.90356 6.14214,6.14214 Z m 7.70416,2.31071 c -0.3022,-0.2833 -0.7768,-0.26799 -1.0601,0.03419 -0.2833,0.30219 -0.268,0.77682 0.0342,1.06011 l 1.283,1.20285 h -3.4367 c -0.5551,0 -1.37809,0.1503 -2.0863,0.6284 C 7.83208,11.8835 7.25,12.7345 7.25,14 c 0,0.4142 0.33579,0.75 0.75,0.75 0.41421,0 0.75,-0.3358 0.75,-0.75 0,-0.7345 0.30681,-1.1335 0.66961,-1.3784 C 9.8225,12.3497 10.3329,12.25 10.6667,12.25 h 3.4367 l -1.283,1.2028 c -0.3022,0.2833 -0.3175,0.758 -0.0342,1.0602 0.2833,0.3021 0.7579,0.3175 1.0601,0.0342 l 2.6667,-2.5 c 0.1512,-0.1418 0.237,-0.3399 0.237,-0.5472 0,-0.2073 -0.0858,-0.4054 -0.237,-0.5472 z"
       fill="#007d00"
       id="path1-6"
       style="fill:#719600;fill-opacity:1" />
  </g>
</svg>
