<?xml version="1.0" encoding="UTF-8" standalone="no"?>
<svg
   width="16"
   height="16"
   fill="none"
   version="1.1"
   id="svg1"
   sodipodi:docname="folder_darkLight_middleware.svg"
   inkscape:version="1.3 (0e150ed6c4, 2023-07-21)"
   xmlns:inkscape="http://www.inkscape.org/namespaces/inkscape"
   xmlns:sodipodi="http://sodipodi.sourceforge.net/DTD/sodipodi-0.dtd"
   xmlns="http://www.w3.org/2000/svg"
   xmlns:svg="http://www.w3.org/2000/svg">
  <defs
     id="defs1" />
  <sodipodi:namedview
     id="namedview1"
     pagecolor="#ffffff"
     bordercolor="#000000"
     borderopacity="0.25"
     inkscape:showpageshadow="2"
     inkscape:pageopacity="0.0"
     inkscape:pagecheckerboard="0"
     inkscape:deskcolor="#d1d1d1"
     inkscape:zoom="53.8125"
     inkscape:cx="9.7839721"
     inkscape:cy="9.4866434"
     inkscape:window-width="1920"
     inkscape:window-height="1057"
     inkscape:window-x="1912"
     inkscape:window-y="-8"
     inkscape:window-maximized="1"
     inkscape:current-layer="svg1" />
  <path
     id="path1"
     style="fill:#90a4ae;fill-opacity:0.80000001"
     d="M 2.4003906 2 C 1.6303922 2 1.0078125 2.6190016 1.0078125 3.375 L 1 11.625 C 1 12.380998 1.6303922 13 2.4003906 13 L 5.5117188 13 L 5.5117188 12.882812 L 5.3105469 12.882812 C 4.2479996 12.882812 3.3398438 12.048977 3.3398438 10.990234 C 3.3398438 9.9330414 4.2460983 9.1000962 5.3066406 9.0976562 A 0.61356135 0.61356135 0 0 1 5.3105469 9.09375 L 5.5117188 9.09375 L 5.5117188 7.6582031 C 5.5117187 6.7383804 6.3032033 6.0214844 7.2128906 6.0214844 L 8.7714844 6.0214844 L 8.7714844 5.8671875 C 8.7714844 4.8084456 9.6796395 3.9726563 10.742188 3.9726562 C 11.804733 3.9726563 12.714844 4.8084456 12.714844 5.8671875 L 12.714844 6.0214844 L 14.273438 6.0214844 C 14.530913 6.0214843 14.777442 6.0806049 15 6.1835938 L 15 4.75 C 15 3.9940016 14.369609 3.375 13.599609 3.375 L 8 3.375 L 6.5996094 2 L 2.4003906 2 z M 10.742188 5.1992188 C 10.304944 5.1992188 9.9980469 5.5116642 9.9980469 5.8671875 L 9.9980469 6.6347656 A 0.61356135 0.61356135 0 0 1 9.3847656 7.2480469 L 7.2128906 7.2480469 C 6.9264373 7.2480469 6.7402344 7.4417638 6.7402344 7.6582031 L 6.7402344 9.7089844 A 0.61356135 0.61356135 0 0 1 6.125 10.322266 L 5.3105469 10.322266 C 4.8733039 10.322266 4.5664063 10.634712 4.5664062 10.990234 C 4.5664062 11.345759 4.8733038 11.65625 5.3105469 11.65625 L 6.125 11.65625 A 0.61356135 0.61356135 0 0 1 6.7402344 12.269531 L 6.7402344 13 L 9.46875 13 C 9.7627929 12.780305 10.117696 12.635767 10.5 12.591797 L 10.5 8.0234375 C 10.5 7.943361 10.564455 7.8789062 10.644531 7.8789062 L 14.746094 7.8789062 L 14.746094 7.6601562 C 14.746094 7.4458754 14.560895 7.2480468 14.273438 7.2480469 L 12.099609 7.2480469 A 0.61356135 0.61356135 0 0 1 11.486328 6.6347656 L 11.486328 5.8671875 C 11.486328 5.5116642 11.179429 5.1992187 10.742188 5.1992188 z " />
  <path
     d="M 5.3113516,9.7080512 H 6.1258604 V 7.6587753 c 0,-0.5681327 0.4885285,-1.023805 1.0866006,-1.023805 h 2.172318 v -0.768062 a 1.3578092,1.280381 0 0 1 1.357809,-1.280381 1.3578092,1.280381 0 0 1 1.357809,1.280381 v 0.768062 h 2.172318 a 1.0866007,1.024638 0 0 1 1.086601,1.024638 v 1.9459792 h -0.815393 c -0.814508,0 -1.466469,0.6147825 -1.466469,1.3828445 0,0.768062 0.651961,1.382844 1.466469,1.382844 h 0.814509 v 1.94598 a 1.0866007,1.024638 0 0 1 -1.086601,1.024638 h -2.062774 v -0.768895 c 0,-0.768062 -0.65196,-1.382844 -1.466469,-1.382844 -0.8153916,0 -1.4664691,0.614782 -1.4664691,1.382844 v 0.768062 H 7.212461 A 1.0866007,1.024638 0 0 1 6.1258604,14.316423 V 12.269646 H 5.3113516 A 1.3578092,1.280381 0 0 1 3.9535424,10.989265 1.3578092,1.280381 0 0 1 5.3113516,9.7088843 Z"
     style="fill:#c5cae9;stroke-width:0.527385"
     id="path2" />
</svg>
