<?xml version="1.0" encoding="UTF-8" standalone="no"?>
<svg
   width="16"
   height="16"
   fill="none"
   version="1.1"
   id="svg1"
   sodipodi:docname="folder_darkLight_controller.svg"
   inkscape:version="1.3 (0e150ed6c4, 2023-07-21)"
   xmlns:inkscape="http://www.inkscape.org/namespaces/inkscape"
   xmlns:sodipodi="http://sodipodi.sourceforge.net/DTD/sodipodi-0.dtd"
   xmlns="http://www.w3.org/2000/svg"
   xmlns:svg="http://www.w3.org/2000/svg">
  <defs
     id="defs1" />
  <sodipodi:namedview
     id="namedview1"
     pagecolor="#ffffff"
     bordercolor="#000000"
     borderopacity="0.25"
     inkscape:showpageshadow="2"
     inkscape:pageopacity="0.0"
     inkscape:pagecheckerboard="0"
     inkscape:deskcolor="#d1d1d1"
     inkscape:zoom="53.8125"
     inkscape:cx="8.7061556"
     inkscape:cy="8"
     inkscape:window-width="1920"
     inkscape:window-height="1057"
     inkscape:window-x="1912"
     inkscape:window-y="-8"
     inkscape:window-maximized="1"
     inkscape:current-layer="svg1" />
  <path
     id="path1"
     style="fill:#90a4ae;fill-opacity:0.80000001"
     d="M 2.4003906 2 C 1.6303922 2 1.0078125 2.6190016 1.0078125 3.375 L 1 11.625 C 1 12.380998 1.6303922 13 2.4003906 13 L 6.3515625 13 L 5.9101562 12.238281 C 5.6983123 11.880444 5.7871221 11.40782 6.1152344 11.152344 L 6.8476562 10.576172 C 6.8443474 10.515899 6.8359375 10.464281 6.8359375 10.400391 C 6.8359375 10.333687 6.8460794 10.276461 6.8496094 10.212891 L 6.1171875 9.6464844 L 6.1152344 9.6464844 C 5.78712 9.3910057 5.69831 8.9183866 5.9101562 8.5605469 L 6.8378906 6.9570312 C 7.0382132 6.5942169 7.4872481 6.4325817 7.8730469 6.5839844 L 7.875 6.5859375 L 8.7753906 6.9453125 C 8.8638522 6.8892589 8.9542862 6.8379985 9.046875 6.7890625 L 9.1816406 5.8242188 L 9.1835938 5.8144531 C 9.2521257 5.4127016 9.610029 5.1131021 10.017578 5.1152344 L 11.882812 5.1152344 C 12.290361 5.1131028 12.648312 5.4127065 12.716797 5.8144531 L 12.71875 5.8242188 L 12.853516 6.7890625 C 12.946766 6.8383473 13.037796 6.890863 13.126953 6.9472656 L 14.021484 6.5878906 C 14.377561 6.4430052 14.77559 6.5598289 15 6.8632812 L 15 4.75 C 15 3.9940016 14.369609 3.375 13.599609 3.375 L 8 3.375 L 6.5996094 2 L 2.4003906 2 z M 10.333984 6.3242188 L 10.160156 7.5839844 L 9.8378906 7.7167969 C 9.6053516 7.8124893 9.3880085 7.9375008 9.1894531 8.0917969 L 8.9140625 8.3066406 L 7.7285156 7.8300781 L 7.1171875 8.890625 L 8.1132812 9.6621094 L 8.0742188 10.001953 C 8.0568548 10.151568 8.046875 10.282677 8.046875 10.400391 C 8.046875 10.518103 8.0571204 10.640531 8.0742188 10.779297 L 8.1152344 11.117188 L 7.1152344 11.904297 L 7.7304688 12.966797 L 8.9121094 12.488281 L 9.0605469 12.603516 C 9.053252 12.586211 9.0507812 12.566894 9.0507812 12.546875 L 9.0507812 11.583984 C 8.8338393 11.239002 8.7070312 10.832653 8.7070312 10.398438 C 8.7072187 9.9652949 8.8346695 9.5609902 9.0507812 9.2167969 L 9.0507812 8.6367188 C 9.0507812 8.5566423 9.115236 8.4921875 9.1953125 8.4921875 L 9.7792969 8.4921875 C 10.121359 8.2806096 10.522658 8.1562501 10.951172 8.15625 C 11.37943 8.15625 11.779472 8.2808422 12.121094 8.4921875 L 13.699219 8.4921875 C 13.779295 8.4921875 13.84375 8.5566423 13.84375 8.6367188 L 13.84375 9.6191406 L 14.785156 8.890625 L 14.169922 7.8320312 L 12.988281 8.3066406 L 12.712891 8.09375 C 12.514201 7.9392051 12.295268 7.8126127 12.0625 7.7167969 L 11.742188 7.5839844 L 11.566406 6.3242188 L 10.333984 6.3242188 z M 13.84375 10.173828 L 13.84375 10.617188 C 13.850812 10.54105 13.855469 10.468244 13.855469 10.398438 C 13.855469 10.329215 13.850777 10.253661 13.84375 10.173828 z M 13.84375 11.164062 L 13.84375 12.546875 C 13.84375 12.626951 13.779295 12.691406 13.699219 12.691406 L 13.492188 12.691406 L 14.058594 12.921875 C 14.122893 12.899803 14.184436 12.874429 14.244141 12.84375 L 14.787109 11.904297 L 14.052734 11.328125 L 13.84375 11.164062 z M 9.1738281 12.689453 L 9.1875 12.701172 C 9.3439309 12.821926 9.4929382 12.919999 9.6523438 13 L 12.244141 13 C 12.408939 12.916922 12.565296 12.817271 12.710938 12.703125 L 12.726562 12.691406 L 9.1953125 12.691406 C 9.1879603 12.691406 9.1808793 12.690502 9.1738281 12.689453 z " />
  <path
     d="M 10.950719,12.037192 A 1.638002,1.638002 0 0 1 9.3127175,10.39919 1.638002,1.638002 0 0 1 10.950719,8.761897 a 1.638002,1.638002 0 0 1 1.638002,1.637293 1.638002,1.638002 0 0 1 -1.638002,1.638002 m 3.476851,-1.18379 c 0.01845,-0.149748 0.03265,-0.299496 0.03265,-0.454212 0,-0.154006 -0.0142,-0.308723 -0.03265,-0.4676972 l 0.987201,-0.7629341 a 0.23633217,0.23633217 0 0 0 0.05677,-0.2994961 L 14.534736,7.2509324 C 14.478668,7.1473153 14.352342,7.1054426 14.249434,7.1473153 L 13.084806,7.6157214 A 3.391686,3.391686 0 0 0 12.293483,7.1565415 L 12.120315,5.9166848 A 0.23633217,0.23633217 0 0 0 11.886112,5.7200961 H 10.014617 A 0.23633217,0.23633217 0 0 0 9.7804136,5.9166848 L 9.6079552,7.1565415 A 3.3923958,3.3923958 0 0 0 8.8173426,7.6150117 L 7.652005,7.1473153 A 0.22994481,0.22994481 0 0 0 7.3667031,7.2502227 L 6.4306006,8.8690626 a 0.23065452,0.23065452 0 0 0 0.056776,0.2994961 l 0.9864916,0.7629341 c -0.018452,0.1589742 -0.032646,0.3136912 -0.032646,0.4684072 0,0.154715 0.014194,0.303754 0.032646,0.453502 l -0.9864911,0.776419 a 0.23065452,0.23065452 0 0 0 -0.056776,0.299495 l 0.9361025,1.61955 a 0.23562246,0.23562246 0 0 0 0.2853019,0.102907 l 1.1653376,-0.472664 c 0.2427195,0.187363 0.4953749,0.346337 0.7906126,0.463439 l 0.1731687,1.239856 a 0.23633217,0.23633217 0 0 0 0.2342026,0.196588 h 1.871495 a 0.23633217,0.23633217 0 0 0 0.234204,-0.196588 l 0.172458,-1.239856 a 3.4080093,3.4080093 0 0 0 0.791323,-0.463439 l 1.164628,0.472664 c 0.102908,0.0369 0.229234,0 0.286011,-0.102907 l 0.935393,-1.61955 a 0.23633217,0.23633217 0 0 0 -0.05606,-0.299495 z"
     fill="#80deea"
     style="fill:#fff9c4;stroke-width:0.709706"
     id="path2" />
</svg>
