<?xml version="1.0" encoding="UTF-8" standalone="no"?>
<svg
   width="16"
   height="16"
   fill="none"
   version="1.1"
   id="svg1"
   sodipodi:docname="folder_open_middleware.svg"
   inkscape:version="1.3 (0e150ed6c4, 2023-07-21)"
   xmlns:inkscape="http://www.inkscape.org/namespaces/inkscape"
   xmlns:sodipodi="http://sodipodi.sourceforge.net/DTD/sodipodi-0.dtd"
   xmlns="http://www.w3.org/2000/svg"
   xmlns:svg="http://www.w3.org/2000/svg">
  <defs
     id="defs1" />
  <sodipodi:namedview
     id="namedview1"
     pagecolor="#ffffff"
     bordercolor="#000000"
     borderopacity="0.25"
     inkscape:showpageshadow="2"
     inkscape:pageopacity="0.0"
     inkscape:pagecheckerboard="0"
     inkscape:deskcolor="#d1d1d1"
     inkscape:zoom="53.8125"
     inkscape:cx="7.7955865"
     inkscape:cy="8"
     inkscape:window-width="1920"
     inkscape:window-height="1057"
     inkscape:window-x="1912"
     inkscape:window-y="-8"
     inkscape:window-maximized="1"
     inkscape:current-layer="svg1" />
  <path
     id="path1"
     style="fill:#80cbc4;fill-opacity:1"
     d="M 2.4003906 2 C 1.6303922 2 1.0078125 2.6190016 1.0078125 3.375 L 1 11.625 C 1 12.380998 1.6303922 13 2.4003906 13 L 5.0742188 13 C 4.3566204 12.855554 3.7707486 12.319922 3.5957031 11.625 L 2.4003906 11.625 L 2.4003906 4.75 L 13.599609 4.75 L 13.599609 6.2753906 L 14.425781 6.2753906 C 14.626507 6.2755059 14.819329 6.3129941 15 6.3789062 L 15 4.75 C 15 3.9940016 14.369609 3.375 13.599609 3.375 L 8 3.375 L 6.5996094 2 L 2.4003906 2 z M 13.599609 7.4042969 L 13.599609 8.4921875 L 14.947266 8.4921875 L 14.947266 7.8632812 C 14.946964 7.6206807 14.738301 7.4044764 14.425781 7.4042969 L 13.599609 7.4042969 z M 4.8300781 11.625 C 4.970584 11.795544 5.1928897 11.910084 5.4628906 11.910156 L 6.8417969 11.910156 L 6.8417969 13 L 8.5859375 13 L 8.5859375 11.625 L 4.8300781 11.625 z " />
  <path
     d="M 5.4635,9.9124647 H 6.278009 V 7.8631888 c 0,-0.5681327 0.488529,-1.023805 1.086601,-1.023805 h 2.172318 v -0.768062 a 1.3578092,1.280381 0 0 1 1.357809,-1.280381 1.3578092,1.280381 0 0 1 1.357809,1.280381 v 0.768062 h 2.172318 a 1.0866007,1.024638 0 0 1 1.086601,1.024638 V 9.810001 h -0.815393 c -0.814508,0 -1.466469,0.614782 -1.466469,1.382844 0,0.768062 0.651961,1.382844 1.466469,1.382844 h 0.814509 v 1.945981 a 1.0866007,1.024638 0 0 1 -1.086601,1.024638 h -2.062774 v -0.768895 c 0,-0.768062 -0.65196,-1.382845 -1.466469,-1.382845 -0.815392,0 -1.46647,0.614783 -1.46647,1.382845 v 0.768062 H 7.36461 A 1.0866007,1.024638 0 0 1 6.278009,14.520837 V 12.474059 H 5.4635 A 1.3578092,1.280381 0 0 1 4.105691,11.193678 1.3578092,1.280381 0 0 1 5.4635,9.9132978 Z"
     style="fill:#c5cae9;stroke-width:0.527385"
     id="path2" />
</svg>
