<?xml version="1.0" encoding="UTF-8" standalone="no"?>
<svg
   width="16"
   height="16"
   fill="none"
   version="1.1"
   id="svg1"
   sodipodi:docname="folder_darkLight_model.svg"
   inkscape:version="1.3 (0e150ed6c4, 2023-07-21)"
   xmlns:inkscape="http://www.inkscape.org/namespaces/inkscape"
   xmlns:sodipodi="http://sodipodi.sourceforge.net/DTD/sodipodi-0.dtd"
   xmlns="http://www.w3.org/2000/svg"
   xmlns:svg="http://www.w3.org/2000/svg">
  <defs
     id="defs1" />
  <sodipodi:namedview
     id="namedview1"
     pagecolor="#ffffff"
     bordercolor="#000000"
     borderopacity="0.25"
     inkscape:showpageshadow="2"
     inkscape:pageopacity="0.0"
     inkscape:pagecheckerboard="0"
     inkscape:deskcolor="#d1d1d1"
     inkscape:zoom="53.8125"
     inkscape:cx="9.9140534"
     inkscape:cy="8"
     inkscape:window-width="1920"
     inkscape:window-height="1057"
     inkscape:window-x="1912"
     inkscape:window-y="-8"
     inkscape:window-maximized="1"
     inkscape:current-layer="svg1" />
  <path
     id="path1"
     style="fill:#90a4ae;fill-opacity:0.80000001"
     d="M 2.4003906 2 C 1.6303922 2 1.0078125 2.6190016 1.0078125 3.375 L 1 11.625 C 1 12.380998 1.6303922 13 2.4003906 13 L 5.65625 13 L 5.65625 6.625 C 5.6554115 5.7100159 6.484607 5.0541156 7.3886719 5.0546875 L 14.189453 5.0546875 C 14.474823 5.0545068 14.753034 5.1201445 15 5.2382812 L 15 4.75 C 15 3.9940016 14.369609 3.375 13.599609 3.375 L 8 3.375 L 6.5996094 2 L 2.4003906 2 z M 7.3886719 6.2519531 C 7.039464 6.2517322 6.8533708 6.4650522 6.8535156 6.6230469 L 6.8535156 8.9863281 A 0.59905988 0.59905988 0 0 1 7.1367188 8.5371094 L 7.1367188 8.4316406 C 7.1367188 8.3515642 7.2011735 8.2871094 7.28125 8.2871094 L 14.726562 8.2871094 L 14.726562 6.6230469 C 14.726706 6.4650521 14.540615 6.251732 14.191406 6.2519531 L 7.3886719 6.2519531 z M 6.8535156 11.541016 L 6.8535156 12.382812 A 0.59905988 0.59905988 0 0 1 7.1367188 12.025391 L 7.1367188 11.896484 A 0.59905988 0.59905988 0 0 1 6.8535156 11.541016 z M 14.679688 12.283203 A 0.59905988 0.59905988 0 0 1 14.726562 12.384766 L 14.726562 12.283203 L 14.679688 12.283203 z " />
  <path
     d="M 7.3886064,5.6527297 A 1.133408,0.97035757 0 0 0 6.2543613,6.6238483 v 7.7628607 a 1.133408,0.97035757 0 0 0 1.1342451,0.973402 H 14.190728 A 1.133408,0.97035757 0 0 0 15.324974,14.38747 V 6.6238483 A 1.133408,0.97035757 0 0 0 14.190728,5.6527297 Z m 0,3.3981541 H 14.190728 V 11.477159 H 7.3886064 Z m 0,3.3958712 H 14.190728 V 14.38747 H 7.3886064 Z"
     fill="#ffcdd2"
     id="path2"
     style="stroke-width:0.798169" />
</svg>
