<?xml version="1.0" encoding="UTF-8" standalone="no"?>
<svg
   width="16"
   height="16"
   fill="none"
   version="1.1"
   id="svg1"
   sodipodi:docname="folder_open_controller.svg"
   inkscape:version="1.3 (0e150ed6c4, 2023-07-21)"
   xmlns:inkscape="http://www.inkscape.org/namespaces/inkscape"
   xmlns:sodipodi="http://sodipodi.sourceforge.net/DTD/sodipodi-0.dtd"
   xmlns="http://www.w3.org/2000/svg"
   xmlns:svg="http://www.w3.org/2000/svg">
  <defs
     id="defs1" />
  <sodipodi:namedview
     id="namedview1"
     pagecolor="#ffffff"
     bordercolor="#000000"
     borderopacity="0.25"
     inkscape:showpageshadow="2"
     inkscape:pageopacity="0.0"
     inkscape:pagecheckerboard="0"
     inkscape:deskcolor="#d1d1d1"
     inkscape:zoom="53.8125"
     inkscape:cx="10.694541"
     inkscape:cy="8"
     inkscape:window-width="1920"
     inkscape:window-height="1057"
     inkscape:window-x="1912"
     inkscape:window-y="-8"
     inkscape:window-maximized="1"
     inkscape:current-layer="svg1" />
  <path
     id="path1"
     d="M 2.4003906 2 C 1.6303914 2 1.0078125 2.6190008 1.0078125 3.375 L 1 11.625 C 1 12.380999 1.6303914 13 2.4003906 13 L 7.1035156 13 L 6.421875 11.822266 L 6.421875 11.820312 C 6.3855335 11.758528 6.3634252 11.692089 6.3457031 11.625 L 2.4003906 11.625 L 2.4003906 4.75 L 13.599609 4.75 L 13.599609 6.609375 L 14.509766 6.2421875 L 14.511719 6.2421875 C 14.67282 6.1771259 14.842758 6.1722791 15 6.2128906 L 15 4.75 C 15 3.9940008 14.369609 3.375 13.599609 3.375 L 8 3.375 L 6.5996094 2 L 2.4003906 2 z M 14.662109 7.3769531 L 13.599609 7.8046875 L 13.599609 9.7714844 C 13.60814 9.8493457 13.613247 9.9278094 13.613281 10.007812 L 13.613281 10.009766 C 13.613281 10.089793 13.608111 10.168215 13.599609 10.246094 L 13.599609 11.625 L 12.894531 11.625 C 12.50392 11.981382 11.986301 12.201172 11.419922 12.201172 C 10.853543 12.201171 10.335924 11.981382 9.9453125 11.625 L 7.5898438 11.625 L 8.1777344 12.640625 L 9.3730469 12.154297 L 9.625 12.349609 C 9.8404533 12.515925 10.045161 12.642687 10.28125 12.736328 L 10.582031 12.855469 L 10.601562 13 L 12.236328 13 L 12.255859 12.861328 L 12.548828 12.740234 C 12.786117 12.641347 13.008606 12.510139 13.210938 12.351562 L 13.464844 12.154297 L 14.578125 12.605469 C 14.837632 12.355486 15 12.007858 15 11.625 L 15 11.25 L 14.552734 10.898438 L 14.308594 10.705078 L 14.345703 10.394531 C 14.362893 10.25505 14.375 10.130523 14.375 10.009766 C 14.375 9.8898751 14.363163 9.7558747 14.345703 9.6054688 L 14.308594 9.2929688 L 15 8.7597656 L 15 7.9609375 L 14.662109 7.3769531 z "
     style="fill:#80cbc4;fill-opacity:1" />
  <path
     d="M 11.419888,11.646948 A 1.638002,1.638002 0 0 1 9.7818868,10.008946 1.638002,1.638002 0 0 1 11.419888,8.3716531 1.638002,1.638002 0 0 1 13.05789,10.008946 1.638002,1.638002 0 0 1 11.419888,11.646948 m 3.476851,-1.18379 c 0.01845,-0.149748 0.03265,-0.299496 0.03265,-0.454212 0,-0.1540059 -0.0142,-0.3087229 -0.03265,-0.4676971 L 15.88394,8.7783148 A 0.23633217,0.23633217 0 0 0 15.94071,8.4788187 L 15.003905,6.8606885 C 14.947837,6.7570714 14.821511,6.7151987 14.718604,6.7570714 L 13.553975,7.2254775 A 3.391686,3.391686 0 0 0 12.762652,6.7662976 L 12.589484,5.5264409 A 0.23633217,0.23633217 0 0 0 12.355282,5.3298522 H 10.483786 A 0.23633217,0.23633217 0 0 0 10.249583,5.5264409 L 10.077125,6.7662976 A 3.3923958,3.3923958 0 0 0 9.2865118,7.2247678 L 8.1211748,6.7570714 a 0.22994481,0.22994481 0 0 0 -0.285302,0.1029074 l -0.936103,1.6188399 a 0.23065452,0.23065452 0 0 0 0.05678,0.2994961 l 0.986492,0.7629341 c -0.01845,0.1589742 -0.03265,0.3136912 -0.03265,0.4684071 0,0.154715 0.01419,0.303754 0.03265,0.453502 l -0.986491,0.776419 a 0.23065452,0.23065452 0 0 0 -0.05678,0.299495 l 0.936102,1.61955 a 0.23562246,0.23562246 0 0 0 0.285302,0.102907 l 1.165338,-0.472664 c 0.242719,0.187363 0.495374,0.346337 0.7906122,0.463439 l 0.173169,1.239856 a 0.23633217,0.23633217 0 0 0 0.234202,0.196588 h 1.871495 a 0.23633217,0.23633217 0 0 0 0.234204,-0.196588 l 0.172458,-1.239856 a 3.4080093,3.4080093 0 0 0 0.791323,-0.463439 l 1.164628,0.472664 c 0.102908,0.0369 0.229234,0 0.286011,-0.102907 l 0.935393,-1.61955 a 0.23633217,0.23633217 0 0 0 -0.05606,-0.299495 z"
     fill="#80deea"
     style="fill:#fff9c4;stroke-width:0.709706"
     id="path2" />
</svg>
