<?xml version="1.0" encoding="UTF-8" standalone="no"?>
<svg
   width="16"
   height="16"
   fill="none"
   version="1.1"
   id="svg1"
   sodipodi:docname="folder_open_view.svg"
   inkscape:version="1.3 (0e150ed6c4, 2023-07-21)"
   xmlns:inkscape="http://www.inkscape.org/namespaces/inkscape"
   xmlns:sodipodi="http://sodipodi.sourceforge.net/DTD/sodipodi-0.dtd"
   xmlns="http://www.w3.org/2000/svg"
   xmlns:svg="http://www.w3.org/2000/svg">
  <defs
     id="defs1" />
  <sodipodi:namedview
     id="namedview1"
     pagecolor="#ffffff"
     bordercolor="#000000"
     borderopacity="0.25"
     inkscape:showpageshadow="2"
     inkscape:pageopacity="0.0"
     inkscape:pagecheckerboard="0"
     inkscape:deskcolor="#d1d1d1"
     inkscape:zoom="53.8125"
     inkscape:cx="8.7061556"
     inkscape:cy="8"
     inkscape:window-width="1920"
     inkscape:window-height="1057"
     inkscape:window-x="1912"
     inkscape:window-y="-8"
     inkscape:window-maximized="1"
     inkscape:current-layer="svg1" />
  <path
     id="path1"
     d="M 2.4003906 2 C 1.6303914 2 1.0078125 2.6190008 1.0078125 3.375 L 1 11.625 C 1 12.380999 1.6303914 13 2.4003906 13 L 6.5839844 13 L 6.4316406 11.625 L 2.4003906 11.625 L 2.4003906 4.75 L 13.599609 4.75 L 13.599609 5.0742188 L 14.652344 5.0742188 L 14.664062 5.0742188 C 14.781648 5.0789221 14.893457 5.0999451 15 5.1328125 L 15 4.75 C 15 3.9940008 14.369609 3.375 13.599609 3.375 L 8 3.375 L 6.5996094 2 L 2.4003906 2 z M 13.599609 6.2695312 L 13.599609 8.3476562 L 14.419922 9.1757812 L 14.726562 6.3359375 L 14.728516 6.3300781 C 14.727175 6.329202 14.727371 6.3295114 14.71875 6.3203125 C 14.694604 6.2945555 14.637824 6.2704347 14.615234 6.2695312 L 13.599609 6.2695312 z M 14.166016 11.533203 L 12.960938 12.751953 L 12.947266 12.763672 C 12.824228 12.873472 12.684738 12.951067 12.539062 13 L 13.599609 13 C 13.743331 13 13.882891 12.977496 14.013672 12.9375 L 14.166016 11.533203 z M 7.6347656 11.625 L 7.7871094 13 L 9.3847656 13 C 9.2397309 12.946872 9.1020805 12.86322 8.9824219 12.746094 L 8.9785156 12.742188 L 7.8730469 11.625 L 7.6347656 11.625 z M 10.917969 11.625 C 11.013911 12.055908 10.881342 12.51475 10.591797 12.777344 C 10.483607 12.875462 10.351691 12.949822 10.208984 13 L 11.744141 13 C 11.579111 12.945325 11.429927 12.857242 11.3125 12.740234 C 11.043586 12.47228 10.926849 12.033939 11.021484 11.625 L 10.917969 11.625 z "
     style="fill:#80cbc4;fill-opacity:1" />
  <path
     d="m 7.6313906,13.880726 2.9926174,1.484478 c 0.172435,0.07779 0.364094,0.102046 0.600711,0 l 2.981378,-1.484478 a 0.69802098,0.69802098 0 0 0 0.378291,-0.651881 l 0.734403,-6.8027447 c 0.07454,-0.3818409 -0.2869,-0.7379507 -0.678797,-0.7536264 H 7.1418886 c -0.378588,0.030462 -0.745049,0.3096723 -0.678796,0.7758093 l 0.756584,6.8589418 c 0.0491,0.283941 0.134872,0.415559 0.411714,0.573797 z m 1.768715,-1.562858 -1.657505,-1.675249 c -0.335405,-0.251406 -0.216209,-0.6524721 0,-0.8547802 L 9.4113436,8.1013493 C 9.998156,7.58168 10.725162,8.3557138 10.223532,8.9221157 l -1.2682684,1.3043533 1.2570294,1.270633 c 0.521446,0.644191 -0.3090814,1.313227 -0.8121874,0.820766 z m 4.8172304,-1.686489 -1.668743,1.686489 c -0.569063,0.50784 -1.330677,-0.239574 -0.812189,-0.820766 L 12.993433,10.226469 11.72546,8.9445953 C 11.23448,8.4400084 11.913572,7.5917355 12.53765,8.1238291 l 1.657503,1.6752491 c 0.23928,0.2517018 0.226858,0.6246678 0.02218,0.8323008 z"
     fill="#f78c6c"
     id="path1-0"
     style="stroke-width:0.295771" />
</svg>
