<?xml version="1.0" encoding="UTF-8" standalone="no"?>
<svg
   width="16"
   height="16"
   fill="none"
   version="1.1"
   id="svg1"
   sodipodi:docname="folder_darkLight_view.svg"
   inkscape:version="1.3 (0e150ed6c4, 2023-07-21)"
   xmlns:inkscape="http://www.inkscape.org/namespaces/inkscape"
   xmlns:sodipodi="http://sodipodi.sourceforge.net/DTD/sodipodi-0.dtd"
   xmlns="http://www.w3.org/2000/svg"
   xmlns:svg="http://www.w3.org/2000/svg">
  <defs
     id="defs1" />
  <sodipodi:namedview
     id="namedview1"
     pagecolor="#ffffff"
     bordercolor="#000000"
     borderopacity="0.25"
     inkscape:showpageshadow="2"
     inkscape:pageopacity="0.0"
     inkscape:pagecheckerboard="0"
     inkscape:deskcolor="#d1d1d1"
     inkscape:zoom="38.051184"
     inkscape:cx="8.7119497"
     inkscape:cy="9.8157261"
     inkscape:window-width="1920"
     inkscape:window-height="1057"
     inkscape:window-x="1912"
     inkscape:window-y="-8"
     inkscape:window-maximized="1"
     inkscape:current-layer="svg1" />
  <path
     id="path1"
     d="M 2.4003906 2 C 1.6303914 2 1.0078125 2.6190008 1.0078125 3.375 L 1 11.625 C 1 12.380999 1.6303914 13 2.4003906 13 L 6.5195312 13 L 5.7910156 6.3808594 C 5.7339334 5.9792453 5.882567 5.5767832 6.1308594 5.3261719 C 6.3791516 5.0755605 6.6941605 4.9514929 7.0136719 4.9257812 L 7.0371094 4.9238281 L 14.572266 4.9238281 L 14.583984 4.9238281 C 14.73093 4.9297059 14.870379 4.9610313 15 5.0097656 L 15 4.75 C 15 3.9940008 14.369609 3.375 13.599609 3.375 L 8 3.375 L 6.5996094 2 L 2.4003906 2 z M 7.1035156 6.1191406 C 7.0473038 6.1258666 6.9929107 6.1554108 6.9804688 6.1679688 C 6.9674488 6.1811117 6.9654394 6.1483687 6.9746094 6.2128906 L 6.9765625 6.2226562 L 7.3007812 9.1542969 L 8.9199219 7.515625 L 8.9355469 7.5039062 C 9.431034 7.0651121 10.191735 7.1407377 10.576172 7.5390625 C 10.960608 7.9373873 11.027273 8.6762202 10.591797 9.1679688 L 10.582031 9.1777344 L 9.7128906 10.072266 L 10.578125 10.947266 L 10.597656 10.970703 C 11.019758 11.492169 10.920828 12.255925 10.511719 12.626953 C 10.102608 12.997985 9.3681868 13.049736 8.9023438 12.59375 L 8.8984375 12.591797 L 7.5253906 11.203125 L 7.7246094 13 L 13.599609 13 C 13.707812 13 13.812748 12.986 13.914062 12.962891 L 14.085938 11.382812 L 12.880859 12.601562 L 12.867188 12.613281 C 12.375039 13.052482 11.624778 12.978846 11.232422 12.587891 C 10.840069 12.196935 10.770094 11.443376 11.210938 10.949219 L 11.220703 10.9375 L 12.072266 10.076172 L 11.21875 9.2128906 L 11.216797 9.2109375 C 10.758402 8.7398421 10.820438 8.0065175 11.1875 7.5957031 C 11.371031 7.3902959 11.637067 7.238092 11.947266 7.2109375 C 12.257464 7.183783 12.589287 7.2989244 12.845703 7.5175781 L 12.865234 7.5351562 L 14.339844 9.0253906 L 14.646484 6.1855469 L 14.648438 6.1796875 C 14.647097 6.179132 14.647293 6.1791208 14.638672 6.1699219 C 14.614529 6.1441649 14.559699 6.1200441 14.537109 6.1191406 L 7.1035156 6.1191406 z "
     style="fill:#90a4ae;fill-opacity:0.80000001" />
  <path
     d="m 7.5515364,13.730016 2.9926176,1.484478 c 0.172434,0.07779 0.364094,0.102046 0.600711,0 l 2.981378,-1.484478 a 0.69802098,0.69802098 0 0 0 0.378291,-0.651881 L 15.238936,6.2753905 C 15.313477,5.8935496 14.952037,5.5374398 14.56014,5.5217641 H 7.0620344 C 6.6834467,5.5522261 6.3169856,5.8314364 6.3832386,6.2975734 l 0.7565838,6.8589416 c 0.049098,0.283941 0.1348716,0.415559 0.411714,0.573797 z M 9.3202511,12.167158 7.6627466,10.491909 c -0.3354052,-0.251406 -0.2162093,-0.6524719 0,-0.85478 L 9.3314896,7.9506395 C 9.9183011,7.4309702 10.645307,8.205004 10.143678,8.7714059 l -1.2682681,1.3043531 1.2570291,1.270633 c 0.521446,0.644191 -0.3090812,1.313227 -0.8121879,0.820766 z m 4.8172309,-1.686489 -1.668744,1.686489 c -0.569063,0.50784 -1.330676,-0.239574 -0.812188,-0.820766 l 1.257029,-1.270633 -1.267973,-1.2818735 c -0.49098,-0.5045869 0.188112,-1.3528598 0.81219,-0.8207662 l 1.657503,1.6752491 c 0.23928,0.2517017 0.226858,0.6246676 0.02218,0.8323006 z"
     fill="#f78c6c"
     id="path1-0"
     style="stroke-width:0.295771" />
</svg>
