<?xml version="1.0" encoding="UTF-8" standalone="no"?>
<svg
   width="16"
   height="16"
   fill="none"
   version="1.1"
   id="svg1"
   sodipodi:docname="folder_darkLight_route.svg"
   inkscape:version="1.3 (0e150ed6c4, 2023-07-21)"
   xmlns:inkscape="http://www.inkscape.org/namespaces/inkscape"
   xmlns:sodipodi="http://sodipodi.sourceforge.net/DTD/sodipodi-0.dtd"
   xmlns="http://www.w3.org/2000/svg"
   xmlns:svg="http://www.w3.org/2000/svg">
  <defs
     id="defs1" />
  <sodipodi:namedview
     id="namedview1"
     pagecolor="#ffffff"
     bordercolor="#000000"
     borderopacity="0.25"
     inkscape:showpageshadow="2"
     inkscape:pageopacity="0.0"
     inkscape:pagecheckerboard="0"
     inkscape:deskcolor="#d1d1d1"
     inkscape:zoom="38.051184"
     inkscape:cx="8.9221928"
     inkscape:cy="9.6580438"
     inkscape:window-width="1920"
     inkscape:window-height="1057"
     inkscape:window-x="1912"
     inkscape:window-y="-8"
     inkscape:window-maximized="1"
     inkscape:current-layer="svg1" />
  <path
     id="path5"
     style="fill:#90a4ae;fill-opacity:0.80000001"
     d="M 2.4003906 2 C 1.6303922 2 1.0078125 2.6190016 1.0078125 3.375 L 1 11.625 C 1 12.380998 1.6303922 13 2.4003906 13 L 6.3789062 13 C 5.8459973 12.464342 5.4185677 12.021562 5.0996094 11.603516 C 4.7049054 11.086191 4.4609375 10.56492 4.4609375 9.9902344 C 4.4609375 9.4155481 4.7049044 8.8962317 5.0996094 8.3789062 C 5.4943143 7.8615809 6.0462066 7.3112127 6.7714844 6.5859375 C 7.4967594 5.8606597 8.0451745 5.3087674 8.5625 4.9140625 C 9.0798255 4.5193575 9.6010957 4.2753906 10.175781 4.2753906 C 10.750469 4.2753906 11.271738 4.5193585 11.789062 4.9140625 C 12.306387 5.3087664 12.854784 5.8606613 13.580078 6.5859375 C 14.16386 7.1697228 14.632322 7.6396014 15 8.0703125 L 15 4.75 C 15 3.9940016 14.369609 3.375 13.599609 3.375 L 8 3.375 L 6.5996094 2 L 2.4003906 2 z M 10.175781 5.2011719 C 9.8492267 5.2011719 9.556314 5.3198199 9.1230469 5.6503906 C 8.6897795 5.9809615 8.151055 6.514958 7.4257812 7.2402344 C 6.700505 7.965508 6.1645551 8.5061859 5.8339844 8.9394531 C 5.5034135 9.3727204 5.3847656 9.6636791 5.3847656 9.9902344 C 5.3847656 10.31679 5.5034125 10.609699 5.8339844 11.042969 C 6.1645561 11.476236 6.7005034 12.014938 7.4257812 12.740234 C 7.518703 12.833155 7.6005121 12.913343 7.6875 13 L 9.75 13 L 9.75 10.583984 L 9.4746094 10.583984 C 9.3913602 10.583984 9.1830833 10.630342 9.078125 10.701172 C 8.9804087 10.767133 8.9316406 10.783983 8.9316406 11.041016 C 8.9316406 11.508554 8.5417646 11.898438 8.0742188 11.898438 C 7.6066729 11.898438 7.2167969 11.508554 7.2167969 11.041016 C 7.2167969 10.234437 7.6205253 9.6191228 8.1210938 9.28125 C 8.5935704 8.9622895 9.0995355 8.8710938 9.4746094 8.8710938 L 10.214844 8.8710938 C 10.000436 8.548197 9.977292 8.1211011 10.251953 7.828125 C 10.411834 7.6575904 10.627615 7.5676469 10.847656 7.5605469 C 11.067698 7.5534495 11.292352 7.6311431 11.462891 7.7910156 L 12.863281 9.1035156 C 12.974931 9.208222 13.051179 9.3421891 13.09375 9.4863281 L 14.855469 9.4863281 C 14.78417 9.3234376 14.67526 9.1486825 14.515625 8.9394531 C 14.185057 8.5061859 13.651051 7.9655081 12.925781 7.2402344 C 12.200486 6.5149564 11.659832 5.9809625 11.226562 5.6503906 C 10.793295 5.3198189 10.502337 5.2011719 10.175781 5.2011719 z " />
  <g
     id="SVGRepo_iconCarrier"
     transform="matrix(0.52529251,0,0,0.52529251,3.8720863,3.6872355)"
     style="fill:#719600;fill-opacity:1">
    <path
       fill-rule="evenodd"
       clip-rule="evenodd"
       d="M 6.14214,6.14214 C 8.90356,3.38071 10.2843,2 12,2 13.7157,2 15.0964,3.38071 17.8579,6.14214 20.6193,8.90356 22,10.2843 22,12 22,13.7157 20.6193,15.0964 17.8579,17.8579 15.0964,20.6193 13.7157,22 12,22 10.2843,22 8.90356,20.6193 6.14214,17.8579 3.38071,15.0964 2,13.7157 2,12 2,10.2843 3.38071,8.90356 6.14214,6.14214 Z m 7.70416,2.31071 c -0.3022,-0.2833 -0.7768,-0.26799 -1.0601,0.03419 -0.2833,0.30219 -0.268,0.77682 0.0342,1.06011 l 1.283,1.20285 h -3.4367 c -0.5551,0 -1.37809,0.1503 -2.0863,0.6284 C 7.83208,11.8835 7.25,12.7345 7.25,14 c 0,0.4142 0.33579,0.75 0.75,0.75 0.41421,0 0.75,-0.3358 0.75,-0.75 0,-0.7345 0.30681,-1.1335 0.66961,-1.3784 C 9.8225,12.3497 10.3329,12.25 10.6667,12.25 h 3.4367 l -1.283,1.2028 c -0.3022,0.2833 -0.3175,0.758 -0.0342,1.0602 0.2833,0.3021 0.7579,0.3175 1.0601,0.0342 l 2.6667,-2.5 c 0.1512,-0.1418 0.237,-0.3399 0.237,-0.5472 0,-0.2073 -0.0858,-0.4054 -0.237,-0.5472 z"
       fill="#007d00"
       id="path1-6"
       style="fill:#719600;fill-opacity:1" />
  </g>
</svg>
