<?xml version="1.0" encoding="UTF-8" standalone="no"?>
<svg
   width="16"
   height="16"
   fill="none"
   version="1.1"
   id="svg2"
   sodipodi:docname="blade.svg"
   inkscape:version="1.3.2 (091e20e, 2023-11-25, custom)"
   xmlns:inkscape="http://www.inkscape.org/namespaces/inkscape"
   xmlns:sodipodi="http://sodipodi.sourceforge.net/DTD/sodipodi-0.dtd"
   xmlns="http://www.w3.org/2000/svg"
   xmlns:svg="http://www.w3.org/2000/svg">
  <defs
     id="defs2" />
  <sodipodi:namedview
     id="namedview2"
     pagecolor="#ffffff"
     bordercolor="#000000"
     borderopacity="0.25"
     inkscape:showpageshadow="2"
     inkscape:pageopacity="0.0"
     inkscape:pagecheckerboard="0"
     inkscape:deskcolor="#d1d1d1"
     inkscape:zoom="53.8125"
     inkscape:cx="8"
     inkscape:cy="8"
     inkscape:window-width="1920"
     inkscape:window-height="1057"
     inkscape:window-x="1912"
     inkscape:window-y="-8"
     inkscape:window-maximized="1"
     inkscape:current-layer="svg2" />
  <g
     fill="#fc8289"
     id="g2"
     transform="matrix(1.3363421,0,0,1.3363421,-2.6718051,-2.504585)">
    <path
       fill-rule="evenodd"
       clip-rule="evenodd"
       d="m 10.007,5.77 a 247.115,247.115 0 0 1 1.402,-0.255 c 0.087,-0.016 0.164,-0.03 0.31,0.16 l 0.553,0.75 c 0.27,0.369 0.541,0.737 0.576,0.78 0.065,0.08 0.049,0.145 -0.072,0.181 L 11.701,7.7 11.428,7.779 c 0.4,0.583 1.16,1.698 1.225,1.803 0.088,0.142 0.008,0.184 -0.122,0.242 a 210.61,210.61 0 0 1 -3.213,1.258 l -0.01,0.003 C 9.063,11.167 8.95,11.205 8.788,10.957 8.665,10.769 7.999,9.457 7.673,8.812 7.055,8.988 5.924,9.311 5.598,9.397 5.28,9.48 5.144,9.272 5.092,9.143 L 4.626,8.042 A 578.935,578.935 0 0 1 3.046,4.292 C 2.929,3.989 3.058,3.932 3.176,3.922 3.293,3.91 4.945,3.76 5.16,3.75 5.364,3.74 5.393,3.787 5.475,3.922 L 5.49,3.946 7.87,8.296 10.863,7.513 9.873,5.978 C 9.79,5.853 9.874,5.795 10.007,5.77 Z m -4.4,3.12 C 5.52,8.912 5.517,8.903 5.507,8.872 V 8.868 C 5.497,8.835 3.514,4.365 3.487,4.309 3.459,4.254 3.46,4.209 3.487,4.209 3.5,4.209 3.934,4.168 4.352,4.127 L 5.124,4.054 C 5.17,4.051 5.174,4.06 5.185,4.084 L 5.194,4.101 7.428,8.318 7.441,8.342 C 7.47,8.393 7.475,8.404 7.408,8.422 L 5.606,8.891 Z m 4.7,-2.774 0.877,1.315 1.137,-0.307 c 0.065,-0.015 0.114,-0.04 0.085,-0.08 L 12.266,6.848 C 12.036,6.53 11.606,5.934 11.565,5.873 11.512,5.793 11.474,5.803 11.431,5.813 L 11.426,5.815 C 11.381,5.825 10.385,6.023 10.324,6.032 10.262,6.04 10.283,6.078 10.307,6.116 Z M 12.14,9.401 12.134,9.39 11.665,8.694 A 27.013,27.013 0 0 0 11.362,8.234 49.097,49.097 0 0 1 11.144,7.902 C 11.108,7.846 11.088,7.835 11.002,7.864 l -2.918,0.83 c 0,0 0.896,1.695 0.965,1.803 0.069,0.11 0.11,0.1 0.164,0.075 0.032,-0.014 1.01,-0.377 1.82,-0.677 0.558,-0.206 1.036,-0.383 1.07,-0.397 0.077,-0.03 0.061,-0.057 0.037,-0.097 z"
       id="path1" />
    <path
       d="m 11.383,5.52 0.04,0.247 z M 10.007,5.77 9.962,5.524 Z M 11.409,5.515 11.364,5.269 Z m 0.31,0.16 0.198,-0.15 -0.199,0.15 z m 0.553,0.75 0.201,-0.147 -0.201,0.148 z m 0.576,0.78 -0.194,0.158 z m -0.072,0.181 -0.07,-0.24 z M 11.701,7.7 11.631,7.46 Z m -0.273,0.079 -0.07,-0.24 -0.33,0.096 0.194,0.285 0.207,-0.141 z m 1.225,1.803 -0.212,0.131 z M 12.531,9.824 12.428,9.596 Z M 9.318,11.082 9.239,10.845 Z M 9.308,11.085 9.23,10.848 9.309,11.085 Z M 8.788,10.957 8.998,10.82 Z M 7.673,8.812 7.896,8.699 7.803,8.515 l -0.2,0.056 0.07,0.24 z M 5.598,9.397 5.662,9.639 Z M 5.092,9.143 5.323,9.049 Z M 4.626,8.042 4.856,7.944 Z M 3.046,4.292 2.813,4.383 3.046,4.293 Z M 3.176,3.922 3.198,4.17 3.176,3.921 Z M 5.16,3.75 5.173,4 Z M 5.475,3.922 5.262,4.052 Z M 5.49,3.946 5.71,3.826 5.703,3.816 Z m 2.38,4.35 -0.219,0.12 0.094,0.172 0.19,-0.05 -0.064,-0.241 z m 2.993,-0.783 0.064,0.242 0.334,-0.088 -0.188,-0.29 z M 9.873,5.978 9.663,6.115 Z M 5.507,8.872 5.747,8.8 Z m 0.098,0.019 0.06,0.242 H 5.666 L 5.606,8.891 Z M 5.505,8.868 5.745,8.797 V 8.794 Z M 3.487,4.31 3.712,4.2 Z M 4.353,4.128 4.329,3.879 4.353,4.129 Z m 0,0 0.023,0.25 z M 5.125,4.055 5.14,4.305 Z M 5.186,4.085 5.413,3.979 Z M 5.195,4.102 5.415,3.985 Z M 7.429,8.319 7.65,8.202 7.43,8.319 Z m 0.013,0.024 0.22,-0.12 z M 7.409,8.423 7.345,8.18 7.409,8.422 Z m 3.776,-0.991 -0.208,0.139 0.1,0.15 0.173,-0.048 z M 10.308,6.117 10.098,6.253 10.1,6.256 Z m 2.014,1.008 -0.058,-0.243 h -10e-4 z m 0.085,-0.08 -0.204,0.145 z m -0.14,-0.196 0.202,-0.146 -0.203,0.146 z m 0,0 -0.204,0.146 0.203,-0.146 z M 11.566,5.874 11.774,5.735 Z m -0.134,-0.06 0.06,0.243 z m -0.005,0.002 0.06,0.242 z M 10.325,6.033 10.36,6.28 h 0.001 z M 12.135,9.391 12.35,9.263 12.346,9.257 12.342,9.251 Z m 0.006,0.01 -0.215,0.128 V 9.53 L 12.141,9.402 Z M 11.666,8.695 11.45,8.821 11.454,8.828 11.459,8.835 Z M 11.363,8.235 11.155,8.372 11.363,8.234 Z M 11.145,7.903 11.355,7.769 Z M 11.003,7.865 11.072,8.106 11.085,8.101 Z M 8.085,8.695 8.017,8.455 7.72,8.539 7.864,8.812 Z m 0.965,1.803 -0.212,0.134 z m 0.164,0.075 -0.106,-0.226 z m 1.82,-0.677 -0.086,-0.234 0.087,0.234 z M 12.104,9.499 12.012,9.267 Z M 11.345,5.274 C 11.243,5.29 10.093,5.501 9.963,5.525 l 0.09,0.492 a 254.1,254.1 0 0 1 1.37,-0.25 z m 0.02,-0.004 a 0.986,0.986 0 0 1 -0.02,0.004 l 0.078,0.494 0.032,-0.006 z m 0.553,0.256 A 0.677,0.677 0 0 0 11.632,5.286 C 11.511,5.239 11.405,5.263 11.365,5.27 l 0.09,0.492 0.027,-0.004 A 0.087,0.087 0 0 1 11.454,5.753 C 11.445,5.749 11.446,5.747 11.458,5.758 a 0.48,0.48 0 0 1 0.062,0.07 z m 0.556,0.753 C 12.236,5.954 11.994,5.626 11.918,5.526 L 11.52,5.828 c 0.073,0.097 0.31,0.42 0.551,0.747 z m 0.569,0.77 -10e-4,-0.002 A 0.16,0.16 0 0 1 13.038,7.042 L 13.025,7.025 A 13.04,13.04 0 0 1 12.851,6.79 L 12.474,6.279 12.071,6.575 c 0.267,0.362 0.544,0.74 0.584,0.789 l 0.388,-0.316 z m -0.195,0.578 c 0.08,-0.024 0.217,-0.08 0.27,-0.23 C 13.175,7.24 13.092,7.109 13.043,7.048 L 12.655,7.364 C 12.659,7.369 12.651,7.361 12.645,7.34 A 0.174,0.174 0 0 1 12.648,7.229 0.163,0.163 0 0 1 12.704,7.151 C 12.716,7.142 12.72,7.143 12.706,7.147 Z M 11.772,7.941 12.848,7.627 12.706,7.147 11.632,7.461 Z M 11.499,8.02 11.772,7.94 11.632,7.46 11.359,7.54 Z m 1.368,1.431 C 12.798,9.341 12.031,8.217 11.636,7.639 l -0.413,0.282 c 0.402,0.589 1.158,1.695 1.219,1.793 z m -0.233,0.602 A 1.16,1.16 0 0 0 12.745,9.998 0.426,0.426 0 0 0 12.878,9.88 0.337,0.337 0 0 0 12.939,9.644 0.469,0.469 0 0 0 12.867,9.451 l -0.425,0.263 c 0.012,0.02 0.003,0.013 0,-0.013 a 0.165,0.165 0 0 1 0.03,-0.11 c 0.016,-0.025 0.032,-0.031 0.02,-0.024 a 0.714,0.714 0 0 1 -0.063,0.03 z M 9.396,11.32 c 0.107,-0.036 0.889,-0.34 1.645,-0.636 0.757,-0.297 1.52,-0.6 1.592,-0.632 L 12.429,9.596 12.425,9.598 c -0.003,0 -0.006,0.002 -0.01,0.004 A 4.91,4.91 0 0 1 12.271,9.66 L 11.91,9.804 10.858,10.218 C 10.09,10.52 9.329,10.815 9.239,10.845 Z M 9.387,11.323 9.397,11.32 9.239,10.845 9.23,10.848 Z m -0.808,-0.23 c 0.095,0.146 0.217,0.272 0.402,0.299 0.083,0.012 0.16,0 0.222,-0.014 0.061,-0.014 0.126,-0.036 0.184,-0.055 L 9.23,10.848 A 1.77,1.77 0 0 1 9.09,10.891 C 9.057,10.899 9.05,10.897 9.053,10.897 9.08,10.901 9.064,10.922 8.997,10.82 L 8.579,11.094 Z M 7.449,8.924 c 0.164,0.324 0.412,0.814 0.635,1.247 0.219,0.424 0.424,0.815 0.495,0.923 L 8.997,10.82 A 19.22,19.22 0 0 1 8.529,9.942 C 8.307,9.511 8.059,9.022 7.896,8.699 L 7.45,8.924 Z M 5.662,9.639 C 5.992,9.552 7.126,9.229 7.742,9.052 L 7.604,8.572 C 6.984,8.749 5.857,9.07 5.534,9.155 Z M 4.86,9.237 A 0.72,0.72 0 0 0 5.1,9.552 0.65,0.65 0 0 0 5.662,9.639 L 5.535,9.155 A 0.242,0.242 0 0 1 5.434,9.165 0.097,0.097 0 0 1 5.391,9.147 0.226,0.226 0 0 1 5.323,9.049 Z M 4.396,8.14 4.86,9.238 5.323,9.05 4.857,7.945 4.397,8.14 Z M 2.813,4.383 C 2.896,4.598 3.819,6.777 4.396,8.139 L 4.856,7.944 C 4.276,6.574 3.359,4.407 3.28,4.202 Z m 0.34,-0.71 A 0.428,0.428 0 0 0 2.809,3.868 C 2.714,4.026 2.748,4.214 2.813,4.383 L 3.28,4.203 A 0.386,0.386 0 0 1 3.25,4.095 C 3.25,4.083 3.253,4.1 3.237,4.126 A 0.111,0.111 0 0 1 3.189,4.17 c -0.007,0.003 -0.007,0.002 0.01,0 L 3.153,3.672 Z M 5.148,3.5 A 149.1,149.1 0 0 0 3.153,3.672 L 3.199,4.17 C 3.32,4.16 4.964,4.01 5.173,4 Z m 0.54,0.291 C 5.658,3.741 5.6,3.636 5.498,3.571 A 0.575,0.575 0 0 0 5.148,3.5 L 5.173,4 A 0.389,0.389 0 0 1 5.245,4 C 5.251,4.001 5.242,4 5.229,3.992 5.217,3.984 5.213,3.978 5.22,3.987 5.229,3.998 5.24,4.015 5.262,4.052 L 5.688,3.792 Z M 5.703,3.815 5.688,3.791 5.262,4.051 C 5.266,4.06 5.272,4.068 5.277,4.077 Z M 8.09,8.177 5.71,3.827 5.27,4.067 7.651,8.417 8.091,8.177 Z M 10.8,7.271 7.807,8.055 7.934,8.539 10.927,7.755 Z m -1.137,-1.156 0.99,1.533 0.42,-0.27 A 511.08,511.08 0 0 0 10.081,5.841 Z M 9.961,5.525 A 0.492,0.492 0 0 0 9.666,5.678 0.332,0.332 0 0 0 9.591,5.913 c 0.005,0.08 0.037,0.15 0.072,0.202 l 0.418,-0.274 c -0.006,-0.01 0.006,0.005 0.008,0.039 a 0.167,0.167 0 0 1 -0.037,0.115 c -0.02,0.025 -0.039,0.032 -0.035,0.03 a 0.186,0.186 0 0 1 0.036,-0.01 z M 5.268,8.942 5.275,8.965 a 0.271,0.271 0 0 0 0.184,0.176 c 0.057,0.015 0.106,0.01 0.13,0.007 A 0.719,0.719 0 0 0 5.667,9.132 L 5.547,8.647 5.523,8.652 a 0.206,0.206 0 0 1 0.073,0.007 0.228,0.228 0 0 1 0.15,0.139 c 0.002,0.004 0.003,0.007 10e-4,10e-4 z m 0,-0.003 V 8.942 L 5.748,8.799 5.746,8.796 5.267,8.939 Z M 3.261,4.42 3.284,4.472 a 108.743,108.743 0 0 1 0.299,0.67 2300.932,2300.932 0 0 1 1.686,3.81 L 5.273,8.96 5.267,8.942 5.745,8.794 5.739,8.779 A 0.27,0.27 0 0 0 5.729,8.754 8.328,8.328 0 0 0 5.646,8.564 L 5.418,8.049 A 1816.83,1816.83 0 0 0 3.71,4.199 L 3.261,4.419 Z M 3.485,3.96 A 0.267,0.267 0 0 0 3.263,4.077 0.288,0.288 0 0 0 3.215,4.236 c 0,0.072 0.023,0.137 0.046,0.184 L 3.71,4.2 C 3.706,4.191 3.716,4.206 3.716,4.242 A 0.212,0.212 0 0 1 3.679,4.358 0.233,0.233 0 0 1 3.486,4.46 V 3.96 Z M 4.327,3.879 a 662,662 0 0 1 -0.84,0.08 H 3.485 v 0.5 L 3.531,4.457 A 12.955,12.955 0 0 0 3.79,4.432 L 4.374,4.376 Z m 0,0 L 4.374,4.376 4.327,3.878 Z M 5.109,3.804 C 5.076,3.806 4.701,3.843 4.327,3.879 L 4.374,4.376 A 614.98,614.98 0 0 1 5.12,4.306 L 5.138,4.304 5.108,3.804 Z M 5.411,3.978 C 5.41,3.976 5.4,3.954 5.386,3.933 A 0.279,0.279 0 0 0 5.294,3.843 C 5.213,3.796 5.128,3.803 5.109,3.804 l 0.03,0.5 L 5.123,4.303 A 0.221,0.221 0 0 1 4.967,4.205 C 4.958,4.191 4.953,4.18 4.958,4.191 Z M 5.413,3.983 5.411,3.978 4.958,4.191 4.973,4.219 Z M 7.65,8.201 5.415,3.984 4.973,4.219 7.207,8.435 7.649,8.201 Z m 0.011,0.02 A 1.31,1.31 0 0 1 7.651,8.201 L 7.208,8.435 C 7.214,8.446 7.22,8.455 7.223,8.463 Z M 7.471,8.663 A 0.446,0.446 0 0 0 7.558,8.633 0.275,0.275 0 0 0 7.7,8.469 0.28,0.28 0 0 0 7.69,8.279 C 7.68,8.254 7.665,8.229 7.661,8.221 L 7.223,8.463 C 7.233,8.481 7.23,8.476 7.227,8.468 A 0.214,0.214 0 0 1 7.223,8.32 0.226,0.226 0 0 1 7.335,8.185 C 7.351,8.177 7.361,8.175 7.345,8.179 L 7.472,8.663 Z M 5.668,9.133 C 5.759,9.11 7.438,8.673 7.472,8.663 L 7.345,8.18 5.547,8.648 Z M 11.393,7.293 10.516,5.978 10.1,6.255 10.977,7.57 11.393,7.292 Z m 0.87,-0.412 a 75.846,75.846 0 0 0 -0.975,0.263 l -0.123,0.033 -0.034,0.01 A 0.917,0.917 0 0 1 11.122,7.189 H 11.12 l 0.065,0.242 0.065,0.241 h 0.003 l 0.01,-0.003 0.033,-0.01 A 370.054,370.054 0 0 1 12.181,7.42 l 0.137,-0.036 0.043,-0.012 0.014,-0.003 0.004,-10e-4 h 0.001 z m -0.06,0.308 A 0.216,0.216 0 0 1 12.17,7.024 0.213,0.213 0 0 1 12.27,6.881 l 0.007,-0.003 -0.013,0.003 0.115,0.487 a 0.456,0.456 0 0 0 0.174,-0.077 0.288,0.288 0 0 0 0.108,-0.172 0.285,0.285 0 0 0 -0.05,-0.22 l -0.407,0.29 z m -0.14,-0.194 0.14,0.194 0.408,-0.29 -0.142,-0.197 -0.405,0.293 z m 0,0 0.406,-0.293 -0.405,0.293 z M 11.358,6.012 c 0.044,0.066 0.48,0.669 0.705,0.982 L 12.469,6.702 C 12.237,6.38 11.811,5.791 11.774,5.734 Z m 0.135,0.044 c 0.014,-0.004 0.008,-0.002 -0.002,0 A 0.17,0.17 0 0 1 11.425,6.049 C 11.365,6.032 11.346,5.994 11.358,6.012 l 0.416,-0.278 a 0.384,0.384 0 0 0 -0.21,-0.165 c -0.096,-0.028 -0.183,0 -0.194,0.002 z M 11.488,6.057 11.493,6.056 11.37,5.571 11.366,5.572 Z M 10.361,6.279 A 70.74,70.74 0 0 0 11.488,6.057 L 11.366,5.572 11.319,5.582 A 28.853,28.853 0 0 1 10.833,5.679 112.644,112.644 0 0 1 10.302,5.782 L 10.288,5.784 Z M 10.519,5.981 C 10.513,5.972 10.514,5.974 10.517,5.979 c 0,0.002 0.016,0.031 0.017,0.075 a 0.226,0.226 0 0 1 -0.079,0.18 C 10.41,6.272 10.365,6.278 10.36,6.279 L 10.289,5.784 a 0.31,0.31 0 0 0 -0.159,0.07 0.274,0.274 0 0 0 -0.096,0.218 c 0.003,0.06 0.023,0.106 0.033,0.126 a 0.522,0.522 0 0 0 0.031,0.054 l 0.42,-0.27 z m 1.4,3.536 0.007,0.011 0.43,-0.255 -0.006,-0.01 -0.43,0.254 z M 11.459,8.834 11.927,9.529 12.342,9.25 11.873,8.554 Z M 11.155,8.371 a 157.421,157.421 0 0 1 0.267,0.406 L 11.45,8.82 11.882,8.569 C 11.862,8.534 11.703,8.294 11.572,8.095 Z M 10.934,8.036 c 0.022,0.036 0.119,0.182 0.22,0.335 L 11.572,8.095 A 26.573,26.573 0 0 1 11.356,7.768 Z m 0.15,0.064 c 0.017,-0.005 0.018,-0.004 0.01,-0.003 A 0.189,0.189 0 0 1 10.939,8.043 C 10.929,8.032 10.927,8.025 10.934,8.036 L 11.356,7.768 C 11.34,7.743 11.283,7.648 11.165,7.611 A 0.386,0.386 0 0 0 10.922,7.628 L 11.085,8.1 Z m -2.93,0.835 2.918,-0.83 -0.137,-0.481 -2.918,0.83 0.137,0.48 z M 9.261,10.363 9.257,10.357 A 1.365,1.365 0 0 1 9.207,10.269 L 9.09,10.052 A 164.695,164.695 0 0 1 8.345,8.65 L 8.316,8.596 8.309,8.582 8.307,8.579 V 8.578 L 8.085,8.694 7.865,8.811 V 8.812 L 7.867,8.816 7.874,8.83 7.903,8.884 a 476.987,476.987 0 0 0 0.418,0.788 c 0.228,0.43 0.476,0.894 0.517,0.96 z M 9.108,10.346 c -0.01,0.005 0,0 0.016,-0.004 a 0.178,0.178 0 0 1 0.09,0.005 0.141,0.141 0 0 1 0.057,0.033 c 0.005,0.004 0,10e-4 -0.01,-0.017 l -0.423,0.268 a 0.43,0.43 0 0 0 0.223,0.192 c 0.126,0.04 0.23,-0.01 0.259,-0.024 z m 1.84,-0.685 A 1323.54,1323.54 0 0 0 9.31,10.269 c -0.1,0.037 -0.182,0.068 -0.202,0.077 l 0.211,0.453 0.166,-0.062 0.434,-0.162 1.202,-0.445 z m 1.064,-0.395 -0.008,0.003 a 4.231,4.231 0 0 1 -0.09,0.034 l -0.235,0.087 -0.731,0.271 0.173,0.469 c 0.554,-0.205 1.038,-0.384 1.076,-0.4 z m -0.085,0.263 c 0.008,0.014 0.004,0.008 0,-0.002 A 0.207,0.207 0 0 1 11.914,9.412 0.212,0.212 0 0 1 11.986,9.284 c 0.02,-0.017 0.034,-0.021 0.026,-0.018 l 0.184,0.465 C 12.235,9.715 12.38,9.657 12.407,9.494 A 0.294,0.294 0 0 0 12.387,9.33 C 12.375,9.303 12.359,9.278 12.356,9.272 l -0.43,0.257 z"
       id="path2" />
  </g>
</svg>
