<?xml version="1.0" encoding="UTF-8" standalone="no"?>
<svg
   width="16"
   height="16"
   fill="none"
   version="1.1"
   id="svg5"
   sodipodi:docname="document.svg"
   inkscape:version="1.3.2 (091e20e, 2023-11-25, custom)"
   xmlns:inkscape="http://www.inkscape.org/namespaces/inkscape"
   xmlns:sodipodi="http://sodipodi.sourceforge.net/DTD/sodipodi-0.dtd"
   xmlns="http://www.w3.org/2000/svg"
   xmlns:svg="http://www.w3.org/2000/svg">
  <defs
     id="defs5" />
  <sodipodi:namedview
     id="namedview5"
     pagecolor="#ffffff"
     bordercolor="#000000"
     borderopacity="0.25"
     inkscape:showpageshadow="2"
     inkscape:pageopacity="0.0"
     inkscape:pagecheckerboard="0"
     inkscape:deskcolor="#d1d1d1"
     inkscape:zoom="53.8125"
     inkscape:cx="8"
     inkscape:cy="8"
     inkscape:window-width="1920"
     inkscape:window-height="1057"
     inkscape:window-x="1912"
     inkscape:window-y="-8"
     inkscape:window-maximized="1"
     inkscape:current-layer="svg5" />
  <path
     d="m 3.6432056,2.554007 h 5.445993 l 2.1783974,1.0891986 1.089199,2.1783972 V 13.445993 H 3.6432056 Z"
     fill="#a9b4cb"
     id="path1"
     style="stroke-width:1.0892" />
  <path
     fill-rule="evenodd"
     clip-rule="evenodd"
     d="M 9.0891986,1.4648084 A 1.0891986,1.0891986 0 0 1 9.859262,1.7839435 l 3.267596,3.2675959 a 1.0891986,1.0891986 0 0 1 0.319135,0.7700634 v 6.5351922 a 2.1783972,2.1783972 0 0 1 -2.178397,2.178397 H 4.7324042 A 2.1783972,2.1783972 0 0 1 2.554007,12.356795 V 3.6432056 A 2.1783972,2.1783972 0 0 1 4.7324042,1.4648084 Z m 3.2675964,4.3567944 v 6.5351922 a 1.0891986,1.0891986 0 0 1 -1.089199,1.089198 H 4.7324042 A 1.0891986,1.0891986 0 0 1 3.6432056,12.356795 V 3.6432056 A 1.0891986,1.0891986 0 0 1 4.7324042,2.554007 h 4.3567944 z"
     fill="#a9b4cb"
     id="path2"
     style="stroke-width:1.0892" />
  <path
     d="M 9.0891986,2.554007 V 5.8216028 H 12.356795"
     fill="#f5f7f9"
     id="path3"
     style="stroke-width:1.0892" />
  <path
     d="M 10.178397,8.5445993 H 5.8216028 M 10.178397,10.722996 H 5.8216028"
     stroke="#434f65"
     stroke-linecap="round"
     stroke-linejoin="round"
     id="path4"
     style="stroke-width:1.0892" />
  <path
     d="M 6.9108014,6.3662021 H 5.8216028"
     stroke="#252d3a"
     stroke-linecap="round"
     stroke-linejoin="round"
     id="path5"
     style="stroke-width:1.0892" />
</svg>
