<?xml version="1.0" encoding="UTF-8" standalone="no"?>
<svg
   width="512"
   height="512"
   viewBox="0 0 32 32"
   version="1.1"
   id="svg2"
   sodipodi:docname="dotenv_dark.svg"
   inkscape:version="1.3 (0e150ed6c4, 2023-07-21)"
   xmlns:inkscape="http://www.inkscape.org/namespaces/inkscape"
   xmlns:sodipodi="http://sodipodi.sourceforge.net/DTD/sodipodi-0.dtd"
   xmlns="http://www.w3.org/2000/svg"
   xmlns:svg="http://www.w3.org/2000/svg">
  <defs
     id="defs2">
    <clipPath
       clipPathUnits="userSpaceOnUse"
       id="clipPath2">
      <rect
         style="fill:#666666;stroke-width:0.0695124"
         id="rect3"
         width="27.943163"
         height="27.943163"
         x="2.0490866"
         y="2.0077505"
         ry="1.6947777" />
    </clipPath>
  </defs>
  <sodipodi:namedview
     id="namedview2"
     pagecolor="#ffffff"
     bordercolor="#000000"
     borderopacity="0.25"
     inkscape:showpageshadow="2"
     inkscape:pageopacity="0.0"
     inkscape:pagecheckerboard="0"
     inkscape:deskcolor="#d1d1d1"
     inkscape:zoom="1.6816406"
     inkscape:cx="256"
     inkscape:cy="256"
     inkscape:window-width="1920"
     inkscape:window-height="1057"
     inkscape:window-x="1912"
     inkscape:window-y="-8"
     inkscape:window-maximized="1"
     inkscape:current-layer="svg2" />
  <g
     fill-rule="evenodd"
     id="g2"
     transform="matrix(0.89912062,0,0,0.89912062,1.61407,1.61407)"
     clip-path="url(#clipPath2)">
    <path
       d="M 3.167,3.167 H 28.834 V 28.834 H 3.167 Z"
       id="path1" />
    <path
       fill="#ecd53f"
       fill-rule="nonzero"
       d="M 30,2 V 30 H 2 V 2 Z M 14.757,20.539 H 9.98 v 6.44 h 4.898 V 25.894 H 11.281 V 24.14 h 3.232 V 23.055 H 11.28 v -1.428 h 3.475 v -1.09 z m 2.503,0 h -1.264 v 6.44 h 1.207 v -4.2 l 2.597,4.2 h 1.305 v -6.44 h -1.21 v 4.3 L 17.26,20.538 Z m 5.97,0 h -1.41 l 2.303,6.44 h 1.388 l 2.306,-6.44 h -1.38 L 24.86,25.305 23.23,20.538 Z M 8.3,24.96 H 6.34 v 1.96 H 8.3 Z"
       id="path2" />
  </g>
</svg>
