<?xml version="1.0" encoding="UTF-8" standalone="no"?>
<!-- Uploaded to: SVG Repo, www.svgrepo.com, Generator: SVG Repo Mixer Tools -->

<svg
   width="800px"
   height="800px"
   viewBox="0 0 24 24"
   fill="none"
   version="1.1"
   id="svg2"
   sodipodi:docname="cloud-drizzle-svgrepo-com.svg"
   inkscape:version="1.4 (86a8ad7, 2024-10-11)"
   xmlns:inkscape="http://www.inkscape.org/namespaces/inkscape"
   xmlns:sodipodi="http://sodipodi.sourceforge.net/DTD/sodipodi-0.dtd"
   xmlns="http://www.w3.org/2000/svg"
   xmlns:svg="http://www.w3.org/2000/svg">
  <defs
     id="defs2" />
  <sodipodi:namedview
     id="namedview2"
     pagecolor="#ffffff"
     bordercolor="#000000"
     borderopacity="0.25"
     inkscape:showpageshadow="2"
     inkscape:pageopacity="0.0"
     inkscape:pagecheckerboard="0"
     inkscape:deskcolor="#d1d1d1"
     inkscape:zoom="1.00875"
     inkscape:cx="400"
     inkscape:cy="400"
     inkscape:window-width="1920"
     inkscape:window-height="1057"
     inkscape:window-x="1912"
     inkscape:window-y="-8"
     inkscape:window-maximized="1"
     inkscape:current-layer="svg2" />
  <rect
     style="fill:#dbff4a;stroke-width:0.03;fill-opacity:1"
     id="rect2"
     width="18.52788"
     height="18.349442"
     x="3.0037174"
     y="3.0631971"
     ry="0.017843865" />
  <path
     d="M 16.876097,0.47238425 H 7.1536429 c -4.1998354,0 -6.71312269,2.51005915 -6.71312269,6.70449825 v 9.7099635 c 0,4.194438 2.51328729,6.704498 6.71312269,6.704498 h 9.7224541 c 4.199834,0 6.713123,-2.51006 6.713123,-6.704498 V 7.1768825 c 0,-4.1944391 -2.513289,-6.70449825 -6.713123,-6.70449825 z M 11.055853,15.169437 6.9552255,19.231769 c -0.2976261,0.297245 -0.694461,0.462379 -1.0582263,0.462379 -0.4299045,0 -0.7936697,-0.165134 -1.0912958,-0.462379 -0.5952523,-0.594487 -0.5952523,-1.552272 0,-2.146761 L 8.8732605,12.98965 c 0.6283225,-0.594488 1.5873395,-0.594488 2.1825925,0 0.595253,0.594489 0.595253,1.5853 0,2.179787 z m 0,-8.1907175 -4.1006275,4.0953595 c -0.2976261,0.297245 -0.694461,0.46238 -1.0582263,0.46238 -0.4299045,0 -0.7936697,-0.165135 -1.0912958,-0.46238 -0.5952523,-0.594489 -0.5952523,-1.5853015 0,-2.1797875 L 8.8732605,4.8319599 c 0.6283225,-0.5944874 1.5873395,-0.5944874 2.1825925,0 0.595253,0.5944863 0.595253,1.5522716 0,2.1467596 z m 8.168182,8.1907175 -4.067556,4.062332 c -0.330696,0.297245 -0.69446,0.462379 -1.091295,0.462379 -0.396835,0 -0.79367,-0.165134 -1.091297,-0.462379 -0.595252,-0.594487 -0.595252,-1.552272 0,-2.146761 l 4.100628,-4.095358 c 0.595253,-0.594488 1.55427,-0.594488 2.14952,0 0.595253,0.594489 0.595253,1.5853 0,2.179787 z m 0,-8.1907175 -4.067556,4.0953595 c -0.330696,0.297245 -0.69446,0.46238 -1.091295,0.46238 -0.396835,0 -0.79367,-0.165135 -1.091297,-0.46238 -0.595252,-0.594489 -0.595252,-1.5853015 0,-2.1797875 l 4.100628,-4.0623316 c 0.595253,-0.5944874 1.55427,-0.5944874 2.14952,0 0.595253,0.5944863 0.595253,1.5522716 0,2.1467596 z"
     fill="#292d32"
     id="path2"
     style="stroke-width:3.30484" />
</svg>
