<?xml version="1.0" encoding="UTF-8" standalone="no"?>
<svg
   width="48"
   height="48"
   fill="none"
   version="1.1"
   id="svg1"
   sodipodi:docname="ejs_dark.svg"
   inkscape:version="1.3 (0e150ed6c4, 2023-07-21)"
   xmlns:inkscape="http://www.inkscape.org/namespaces/inkscape"
   xmlns:sodipodi="http://sodipodi.sourceforge.net/DTD/sodipodi-0.dtd"
   xmlns="http://www.w3.org/2000/svg"
   xmlns:svg="http://www.w3.org/2000/svg">
  <defs
     id="defs1" />
  <sodipodi:namedview
     id="namedview1"
     pagecolor="#ffffff"
     bordercolor="#000000"
     borderopacity="0.25"
     inkscape:showpageshadow="2"
     inkscape:pageopacity="0.0"
     inkscape:pagecheckerboard="0"
     inkscape:deskcolor="#d1d1d1"
     inkscape:zoom="17.9375"
     inkscape:cx="24"
     inkscape:cy="24"
     inkscape:window-width="1920"
     inkscape:window-height="1057"
     inkscape:window-x="1912"
     inkscape:window-y="-8"
     inkscape:window-maximized="1"
     inkscape:current-layer="svg1" />
  <path
     d="m 11.784101,37.968558 11.211952,5.561652 c 0.646034,0.291435 1.364095,0.382301 2.250591,0 l 11.169844,-5.561652 a 2.6151619,2.6151619 0 0 0 1.417284,-2.442295 L 40.585233,10.039516 C 40.864479,8.608934 39.510357,7.2747582 38.042099,7.2160279 H 9.9501632 C 8.5317703,7.3301642 7.1588103,8.3762289 7.4070291,10.122625 l 2.8345699,25.69729 c 0.183947,1.063794 0.505302,1.556908 1.542502,2.149751 z m 6.626554,-5.855303 -6.209901,-6.276388 c -1.256608,-0.941902 -0.810036,-2.444512 0,-3.202465 l 6.25201,-6.318497 c 2.198509,-1.946966 4.922266,0.952982 3.042896,3.075031 l -4.751617,4.886807 4.709508,4.760481 c 1.953615,2.413484 -1.157985,4.92005 -3.042896,3.075031 z m 18.047941,-6.318497 -6.25201,6.318497 c -2.132021,1.902641 -4.985429,-0.897576 -3.042896,-3.075031 l 4.709508,-4.760481 -4.750508,-4.80259 c -1.839478,-1.890452 0.704764,-5.068538 3.042896,-3.075031 l 6.209901,6.276388 c 0.896469,0.94301 0.849928,2.340348 0.08311,3.118248 z"
     fill="#f78c6c"
     id="path1"
     style="stroke-width:1.10812" />
</svg>
