<?xml version="1.0" encoding="UTF-8" standalone="no"?>
<svg
   width="16"
   height="16"
   fill="none"
   version="1.1"
   id="svg1"
   sodipodi:docname="git.svg"
   inkscape:version="1.3.2 (091e20e, 2023-11-25, custom)"
   xmlns:inkscape="http://www.inkscape.org/namespaces/inkscape"
   xmlns:sodipodi="http://sodipodi.sourceforge.net/DTD/sodipodi-0.dtd"
   xmlns="http://www.w3.org/2000/svg"
   xmlns:svg="http://www.w3.org/2000/svg">
  <defs
     id="defs1" />
  <sodipodi:namedview
     id="namedview1"
     pagecolor="#ffffff"
     bordercolor="#000000"
     borderopacity="0.25"
     inkscape:showpageshadow="2"
     inkscape:pageopacity="0.0"
     inkscape:pagecheckerboard="0"
     inkscape:deskcolor="#d1d1d1"
     inkscape:zoom="53.8125"
     inkscape:cx="8"
     inkscape:cy="8"
     inkscape:window-width="1920"
     inkscape:window-height="1057"
     inkscape:window-x="1912"
     inkscape:window-y="-8"
     inkscape:window-maximized="1"
     inkscape:current-layer="svg1" />
  <path
     d="M 14.775419,7.373472 8.6266147,1.2246685 a 0.90706586,0.90706586 0 0 0 -1.2825653,0 L 6.0685247,2.5013666 7.6878661,4.120708 A 1.0760407,1.0760407 0 0 1 9.0513984,5.4936279 L 10.612068,7.0542975 A 1.077214,1.077214 0 0 1 11.726832,8.8379199 1.079561,1.079561 0 0 1 9.9666784,7.6644841 L 8.5092711,6.2070768 V 10.037171 A 1.079561,1.079561 0 1 1 7.6221536,10.005489 V 6.1413645 A 1.079561,1.079561 0 0 1 7.0354358,4.7262009 L 5.44191,3.1291548 1.2245817,7.3429627 a 0.90706586,0.90706586 0 0 0 0,1.2825653 l 6.1488036,6.148803 a 0.90706586,0.90706586 0 0 0 1.2825653,0 L 14.775419,8.6548639 a 0.90706586,0.90706586 0 0 0 0,-1.2825653 z"
     fill="#fc8289"
     id="path1"
     style="stroke-width:1.17344" />
</svg>
