<?xml version="1.0" encoding="UTF-8" standalone="no"?>
<svg
   width="16"
   height="16"
   fill="none"
   version="1.1"
   id="svg1"
   sodipodi:docname="gulp.svg"
   inkscape:version="1.3.2 (091e20e, 2023-11-25, custom)"
   xmlns:inkscape="http://www.inkscape.org/namespaces/inkscape"
   xmlns:sodipodi="http://sodipodi.sourceforge.net/DTD/sodipodi-0.dtd"
   xmlns="http://www.w3.org/2000/svg"
   xmlns:svg="http://www.w3.org/2000/svg">
  <defs
     id="defs1" />
  <sodipodi:namedview
     id="namedview1"
     pagecolor="#ffffff"
     bordercolor="#000000"
     borderopacity="0.25"
     inkscape:showpageshadow="2"
     inkscape:pageopacity="0.0"
     inkscape:pagecheckerboard="0"
     inkscape:deskcolor="#d1d1d1"
     inkscape:zoom="53.8125"
     inkscape:cx="8"
     inkscape:cy="8"
     inkscape:window-width="1920"
     inkscape:window-height="1057"
     inkscape:window-x="1912"
     inkscape:window-y="-8"
     inkscape:window-maximized="1"
     inkscape:current-layer="svg1" />
  <path
     d="M 5.3127378,11.249033 C 5.1029671,9.0789926 4.9341862,7.2778585 4.9353917,7.2441023 4.9365973,7.210346 4.7581717,7.1826178 4.5399621,7.1826178 H 4.1409156 V 5.6298329 h 3.107981 V 2.6158868 L 8.7148801,1.711703 C 9.6082137,1.1607536 10.265255,0.80751923 10.395457,0.80751923 c 0.31345,0 0.67874,0.40627987 0.67874,0.75469197 0,0.1519029 -0.04461,0.337562 -0.100064,0.414719 -0.05425,0.077158 -0.566621,0.4255691 -1.1356539,0.7763925 L 8.8016817,3.3898682 8.781187,4.5098505 8.7582808,5.6298329 H 11.871085 V 7.1826178 H 11.103131 L 10.714934,11.187549 10.43283,14.102638 A 1.2055784,1.2055784 0 0 1 9.2332789,15.192481 H 6.7859546 A 1.2055784,1.2055784 0 0 1 5.5876096,14.102638 L 5.3139434,11.249033 Z"
     fill="#fc8289"
     id="path1"
     style="stroke-width:1.20557" />
</svg>
