<?xml version="1.0" encoding="UTF-8" standalone="no"?>
<svg
   width="128"
   height="128"
   viewBox="0 0 256 256"
   version="1.1"
   id="svg2"
   sodipodi:docname="html_dark.svg"
   inkscape:version="1.3 (0e150ed6c4, 2023-07-21)"
   xmlns:inkscape="http://www.inkscape.org/namespaces/inkscape"
   xmlns:sodipodi="http://sodipodi.sourceforge.net/DTD/sodipodi-0.dtd"
   xmlns="http://www.w3.org/2000/svg"
   xmlns:svg="http://www.w3.org/2000/svg">
  <defs
     id="defs2" />
  <sodipodi:namedview
     id="namedview2"
     pagecolor="#ffffff"
     bordercolor="#000000"
     borderopacity="0.25"
     inkscape:showpageshadow="2"
     inkscape:pageopacity="0.0"
     inkscape:pagecheckerboard="0"
     inkscape:deskcolor="#d1d1d1"
     inkscape:zoom="6.7265625"
     inkscape:cx="64"
     inkscape:cy="64.891986"
     inkscape:window-width="1920"
     inkscape:window-height="1057"
     inkscape:window-x="1912"
     inkscape:window-y="-8"
     inkscape:window-maximized="1"
     inkscape:current-layer="svg2" />
  <g
     fill="none"
     id="g2"
     transform="matrix(0.77932636,0,0,0.77932636,28.246225,28.246225)">
    <rect
       width="256"
       height="256"
       fill="#e14e1d"
       rx="60"
       id="rect1"
       x="0"
       y="0" />
    <path
       fill="#ffffff"
       d="m 48,38 8.61,96.593 h 110.71 l -3.715,41.43 -35.646,9.638 -35.579,-9.624 -2.379,-26.602 H 57.94 l 4.585,51.281 65.427,18.172 65.51,-18.172 8.783,-98.061 H 85.824 L 82.901,69.945 H 205.139 L 208,38 Z"
       id="path1" />
    <path
       fill="#ebebeb"
       d="M 128,38 H 48 l 8.61,96.593 H 128 V 102.655 H 85.824 L 82.901,69.945 H 128 Z m 0,147.647 -0.041,0.014 -35.579,-9.624 -2.379,-26.602 H 57.94 l 4.585,51.281 65.427,18.172 0.049,-0.014 v -33.227 z"
       id="path2" />
  </g>
</svg>
