<?xml version="1.0" encoding="UTF-8" standalone="no"?>
<svg
   viewBox="0 0 24 24"
   version="1.1"
   id="svg2"
   sodipodi:docname="javascript-map.svg"
   inkscape:version="1.3.2 (091e20e, 2023-11-25, custom)"
   xmlns:inkscape="http://www.inkscape.org/namespaces/inkscape"
   xmlns:sodipodi="http://sodipodi.sourceforge.net/DTD/sodipodi-0.dtd"
   xmlns="http://www.w3.org/2000/svg"
   xmlns:svg="http://www.w3.org/2000/svg">
  <defs
     id="defs2" />
  <sodipodi:namedview
     id="namedview2"
     pagecolor="#ffffff"
     bordercolor="#000000"
     borderopacity="0.25"
     inkscape:showpageshadow="2"
     inkscape:pageopacity="0.0"
     inkscape:pagecheckerboard="0"
     inkscape:deskcolor="#d1d1d1"
     inkscape:zoom="35.875"
     inkscape:cx="12"
     inkscape:cy="12"
     inkscape:window-width="1920"
     inkscape:window-height="1057"
     inkscape:window-x="1912"
     inkscape:window-y="-8"
     inkscape:window-maximized="1"
     inkscape:current-layer="svg2" />
  <g
     id="g2">
    <path
       d="m 17.778,7.747 v 2 h 2 v 10 h -10 v -2 h -2 v 4 h 14 v -14 z"
       id="path1"
       style="fill:#ffaf0f;fill-opacity:1" />
    <path
       d="m 16.317073,4.6027875 c 0,-1.2970038 -1.049313,-2.3484321 -2.343787,-2.3484321 H 4.5981417 c -1.294438,0 -2.3437863,1.0514283 -2.3437863,2.3484321 v 9.3937275 c 0,1.297039 1.0493483,2.348432 2.3437863,2.348432 h 9.3751443 c 1.294474,0 2.343787,-1.051393 2.343787,-2.348432 z"
       fill="#ffaf0f"
       id="path1-1"
       style="stroke-width:1.17305" />
    <path
       d="m 4.847626,12.822299 h 1.182323 c 0.1803544,0 0.3390053,-0.03675 0.475941,-0.110376 0.1402756,-0.07703 0.2471523,-0.184117 0.32063,-0.321266 0.076818,-0.140553 0.1152205,-0.301186 0.1152205,-0.481898 l 5.86e-5,-4.957516 h 1.1723033 l -5.86e-5,5.117679 c 0,0.378215 -0.083497,0.712867 -0.2504921,1.003955 -0.1669948,0.291206 -0.3991117,0.518769 -0.6963624,0.682689 -0.2972507,0.160633 -0.63792,0.240949 -1.022008,0.240949 H 4.847626 Z"
       fill="#000000"
       id="path2-2"
       style="stroke-width:1.17305" />
    <path
       d="m 11.753252,14.11699 c -0.497679,0 -0.938545,-0.0903 -1.322633,-0.271009 C 10.046531,13.661864 9.7459402,13.407529 9.528847,13.082975 9.3117538,12.755017 9.2015372,12.380207 9.1981973,11.958546 h 1.1873387 c 0,0.22087 0.05844,0.418256 0.175339,0.592274 0.116896,0.174019 0.278887,0.309524 0.48596,0.406631 0.210414,0.0937 0.450886,0.140554 0.721417,0.140554 0.263793,0 0.495945,-0.04356 0.696339,-0.130573 0.200394,-0.08701 0.354029,-0.209128 0.460906,-0.366355 0.110275,-0.160633 0.165354,-0.34475 0.165354,-0.552234 0,-0.261028 -0.07852,-0.485233 -0.235433,-0.672638 -0.157034,-0.190751 -0.365748,-0.307879 -0.62626,-0.351383 L 11.04182,10.824031 C 10.70115,10.763793 10.405575,10.643319 10.155083,10.462607 9.9045911,10.281895 9.7108772,10.056011 9.5739414,9.7849433 9.4403456,9.5105291 9.3735477,9.21101 9.3735477,8.886398 c 0,-0.3881958 0.1001969,-0.7362334 0.3005906,-1.0441129 C 9.8778719,7.5310592 10.160087,7.2884426 10.520796,7.1144238 10.881505,6.9370585 11.288972,6.84837 11.743174,6.84837 c 0.464304,0 0.876693,0.085342 1.237402,0.2560143 0.364107,0.1706723 0.647939,0.4082749 0.851732,0.7128078 0.203675,0.3045329 0.30727,0.6525706 0.310551,1.0441129 h -1.187245 c 0,-0.1907514 -0.05016,-0.3614237 -0.150353,-0.5120169 -0.100197,-0.1539397 -0.240473,-0.2727469 -0.420827,-0.3564098 -0.180355,-0.083663 -0.389069,-0.1254884 -0.62626,-0.1254884 -0.237074,0 -0.445823,0.040158 -0.626177,0.1204745 -0.180355,0.080316 -0.32063,0.1940979 -0.420827,0.3413446 -0.100197,0.1472467 -0.150295,0.317919 -0.150295,0.5120169 0,0.2275631 0.07348,0.4250075 0.220433,0.5923333 0.146955,0.1639793 0.339005,0.2660421 0.576137,0.3062003 l 1.167264,0.1907514 c 0.344068,0.060237 0.649581,0.1890841 0.916772,0.3865281 0.27059,0.197445 0.479305,0.443408 0.62626,0.737901 0.146955,0.294493 0.220433,0.607351 0.220433,0.938715 0,0.401582 -0.106877,0.764649 -0.32063,1.08932 -0.213753,0.321266 -0.512703,0.57384 -0.896732,0.757957 -0.384147,0.183999 -0.823255,0.276058 -1.31756,0.276058 z"
       fill="#000000"
       id="path3"
       style="stroke-width:1.17305" />
  </g>
</svg>
