<?xml version="1.0" encoding="UTF-8" standalone="no"?>
<svg
   width="16"
   height="16"
   fill="none"
   version="1.1"
   id="svg1"
   sodipodi:docname="nextjs.svg"
   inkscape:version="1.3.2 (091e20e, 2023-11-25, custom)"
   xmlns:inkscape="http://www.inkscape.org/namespaces/inkscape"
   xmlns:sodipodi="http://sodipodi.sourceforge.net/DTD/sodipodi-0.dtd"
   xmlns="http://www.w3.org/2000/svg"
   xmlns:svg="http://www.w3.org/2000/svg">
  <defs
     id="defs1" />
  <sodipodi:namedview
     id="namedview1"
     pagecolor="#ffffff"
     bordercolor="#000000"
     borderopacity="0.25"
     inkscape:showpageshadow="2"
     inkscape:pageopacity="0.0"
     inkscape:pagecheckerboard="0"
     inkscape:deskcolor="#d1d1d1"
     inkscape:zoom="53.8125"
     inkscape:cx="8"
     inkscape:cy="8"
     inkscape:window-width="1920"
     inkscape:window-height="1057"
     inkscape:window-x="1912"
     inkscape:window-y="-8"
     inkscape:window-maximized="1"
     inkscape:current-layer="svg1" />
  <path
     d="m 7.5704866,1.4457394 -0.1989094,0.01858 A 6.573848,6.573848 0 0 0 1.5015625,7.0458058 c -0.052461,0.3606601 -0.059018,0.4666722 -0.059018,0.9552026 0,0.4885304 0.00656,0.5956353 0.059018,0.9552025 a 6.5836843,6.5836843 0 0 0 4.4852988,5.2973311 c 0.4262347,0.137706 0.8743273,0.231695 1.3847159,0.287434 0.1989094,0.02186 1.057936,0.02186 1.2568454,0 a 6.6230291,6.6230291 0 0 0 2.3628694,-0.690718 c 0.112569,-0.05793 0.134428,-0.07322 0.119127,-0.08634 -0.01093,-0.0076 -0.491809,-0.651375 -1.067772,-1.431711 L 8.9934542,10.915798 7.6797776,8.9726041 a 181.71471,181.71471 0 0 0 -1.32242,-1.9431923 c -0.00546,-0.00108 -0.010929,0.8633982 -0.014208,1.9180555 -0.00328,1.8470167 -0.00437,1.9213347 -0.027323,1.9650507 A 0.23278964,0.23278964 0 0 1 6.202164,11.028366 c -0.040438,0.02077 -0.076503,0.02512 -0.2699485,0.02512 H 5.7103554 l -0.059018,-0.03716 a 0.2393471,0.2393471 0 0 1 -0.085247,-0.09399 l -0.027323,-0.05793 0.00219,-2.5694292 0.00437,-2.571615 0.039345,-0.050273 a 0.35082382,0.35082382 0 0 1 0.095083,-0.07869 c 0.05246,-0.025137 0.073225,-0.027323 0.2950855,-0.027323 0.2612052,0 0.3049216,0.00983 0.372682,0.084154 0.019672,0.020765 0.7311561,1.092909 1.5814394,2.3825418 l 2.5880087,3.9191734 1.038264,1.573788 0.05246,-0.03607 c 0.46558,-0.302735 0.95739,-0.73225 1.347557,-1.181435 A 6.5213886,6.5213886 0 0 0 14.49844,8.9572749 c 0.05247,-0.36066 0.05901,-0.4666722 0.05901,-0.9552025 0,-0.4885303 -0.0066,-0.5945425 -0.05901,-0.9552025 A 6.5836843,6.5836843 0 0 0 8.6470021,1.4632258 16.802385,16.802385 0 0 0 7.5704866,1.4468323 Z m 2.6841854,3.9661671 a 0.25792655,0.25792655 0 0 1 0.130055,0.1508214 c 0.01093,0.032787 0.01203,0.7464569 0.01093,2.3530332 L 10.391286,10.219614 9.9847223,9.5966553 9.5770676,8.9736971 V 7.2982675 c 0,-1.08198 0.00546,-1.6918233 0.013115,-1.7213318 A 0.26229818,0.26229818 0 0 1 9.71696,5.4151852 c 0.052461,-0.026229 0.071039,-0.029509 0.2732269,-0.029509 0.1890731,0 0.2229531,0.00328 0.2644851,0.02623 z"
     fill="#82aaff"
     id="path1"
     style="stroke-width:1.09291" />
</svg>
