<?xml version="1.0" encoding="UTF-8" standalone="no"?>
<svg
   width="16"
   height="16"
   fill="none"
   version="1.1"
   id="svg2"
   sodipodi:docname="package-lock.svg"
   inkscape:version="1.3.2 (091e20e, 2023-11-25, custom)"
   xmlns:inkscape="http://www.inkscape.org/namespaces/inkscape"
   xmlns:sodipodi="http://sodipodi.sourceforge.net/DTD/sodipodi-0.dtd"
   xmlns="http://www.w3.org/2000/svg"
   xmlns:svg="http://www.w3.org/2000/svg">
  <defs
     id="defs2" />
  <sodipodi:namedview
     id="namedview2"
     pagecolor="#ffffff"
     bordercolor="#000000"
     borderopacity="0.25"
     inkscape:showpageshadow="2"
     inkscape:pageopacity="0.0"
     inkscape:pagecheckerboard="0"
     inkscape:deskcolor="#d1d1d1"
     inkscape:zoom="53.8125"
     inkscape:cx="8"
     inkscape:cy="8.1672474"
     inkscape:window-width="1920"
     inkscape:window-height="1057"
     inkscape:window-x="1912"
     inkscape:window-y="-8"
     inkscape:window-maximized="1"
     inkscape:current-layer="svg2" />
  <path
     fill-rule="evenodd"
     clip-rule="evenodd"
     d="M 4.2498329,5.2405894 A 1.0971537,1.0971537 0 0 1 5.3469867,4.1434357 h 5.4693113 a 1.0971537,1.0971537 0 0 1 1.097153,1.0971537 v 1.3878994 a 2.3533947,2.3533947 0 0 1 1.92002,0 V 3.3260562 A 1.0971537,1.0971537 0 0 0 12.736317,2.2289024 H 3.4324535 A 1.0971537,1.0971537 0 0 0 2.3352998,3.3260562 V 12.62992 a 1.0971537,1.0971537 0 0 0 1.0971537,1.097154 h 5.2257431 v -3.550391 c 0,-0.53541 0.4311814,-0.9731744 0.9578152,-0.9731744 H 10.000015 V 7.014687 a 0.95781524,0.95781524 0 1 0 -1.9156299,0 v 3.695214 A 1.0971537,1.0971537 0 0 1 6.9872314,11.807055 H 5.3469867 A 1.0971537,1.0971537 0 0 1 4.2498329,10.709901 Z"
     fill="#fc8289"
     id="path1"
     style="stroke-width:1.09715" />
  <path
     fill-rule="evenodd"
     clip-rule="evenodd"
     d="M 15.029369,10.416961 H 14.669502 V 9.6873534 c 0,-1.0071873 -0.804214,-1.8256637 -1.796041,-1.8256637 -0.991827,0 -1.79604,0.8184764 -1.79604,1.8256637 v 0.7296076 h -0.359867 c -0.394975,0 -0.717539,0.329145 -0.717539,0.729607 v 3.650231 c 0,0.401557 0.322564,0.729605 0.717539,0.729605 h 4.311815 c 0.394975,0 0.718634,-0.329145 0.718634,-0.729605 v -3.650231 a 0.72631576,0.72631576 0 0 0 -0.718634,-0.729607 z m -2.155908,3.284879 c -0.394975,0 -0.718636,-0.329146 -0.718636,-0.730705 0,-0.401559 0.323661,-0.729609 0.718636,-0.729609 0.394976,0 0.718635,0.329147 0.718635,0.729609 A 0.72631576,0.72631576 0 0 1 12.873461,13.70184 Z M 11.759849,9.6862563 v 0.7307047 h 2.227222 V 9.6873534 c 0,-0.6253777 -0.499204,-1.1322626 -1.11361,-1.1322626 -0.614407,0 -1.113612,0.507982 -1.113612,1.1322626 z"
     fill="#ffcb6b"
     id="path2"
     style="stroke-width:1.09715" />
</svg>
