<?xml version="1.0" encoding="UTF-8" standalone="no"?>
<svg
   width="16"
   height="16"
   fill="none"
   version="1.1"
   id="svg2"
   sodipodi:docname="typescript_def.svg"
   inkscape:version="1.3.2 (091e20e, 2023-11-25, custom)"
   xmlns:inkscape="http://www.inkscape.org/namespaces/inkscape"
   xmlns:sodipodi="http://sodipodi.sourceforge.net/DTD/sodipodi-0.dtd"
   xmlns="http://www.w3.org/2000/svg"
   xmlns:svg="http://www.w3.org/2000/svg">
  <defs
     id="defs2" />
  <sodipodi:namedview
     id="namedview2"
     pagecolor="#ffffff"
     bordercolor="#000000"
     borderopacity="0.25"
     inkscape:showpageshadow="2"
     inkscape:pageopacity="0.0"
     inkscape:pagecheckerboard="0"
     inkscape:deskcolor="#d1d1d1"
     inkscape:zoom="53.8125"
     inkscape:cx="8"
     inkscape:cy="8"
     inkscape:window-width="1920"
     inkscape:window-height="1057"
     inkscape:window-x="1912"
     inkscape:window-y="-8"
     inkscape:window-maximized="1"
     inkscape:current-layer="svg2" />
  <path
     d="M 14.466318,3.2972231 A 1.7635413,1.7635413 0 0 0 12.702777,1.5336818 V 2.709376 a 0.58784712,0.58784712 0 0 1 0.587846,0.5878471 z M 12.702777,1.5336818 H 3.2972231 V 2.709376 h 9.4055539 z m -9.4055539,0 A 1.7635413,1.7635413 0 0 0 1.5336818,3.2972231 H 2.709376 A 0.58784712,0.58784712 0 0 1 3.2972231,2.709376 Z M 1.5336818,3.2972231 V 12.702777 H 2.709376 V 3.2972231 Z m 0,9.4055539 a 1.7635413,1.7635413 0 0 0 1.7635413,1.763541 V 13.290623 A 0.58784712,0.58784712 0 0 1 2.709376,12.702777 Z m 1.7635413,1.763541 H 12.702777 V 13.290623 H 3.2972231 Z m 9.4055539,0 a 1.7635413,1.7635413 0 0 0 1.763541,-1.763541 h -1.175695 a 0.58784712,0.58784712 0 0 1 -0.587846,0.587846 z m 1.763541,-1.763541 V 3.2972231 h -1.175695 v 9.4055539 z"
     fill="#3965bd"
     id="path1"
     style="stroke-width:1.17569" />
  <path
     fill-rule="evenodd"
     clip-rule="evenodd"
     d="m 9.022854,11.121468 c 0.1457861,0.07642 0.3327215,0.143434 0.5584548,0.201043 0.2269089,0.05879 0.4643992,0.087 0.7136462,0.087 0.261004,0 0.460873,-0.04702 0.597254,-0.139908 a 0.42560131,0.42560131 0 0 0 0.01057,-0.725404 c -0.130502,-0.09875 -0.349181,-0.195165 -0.656037,-0.289221 A 2.9568711,2.9568711 0 0 1 9.2286004,9.7082837 1.0722332,1.0722332 0 0 1 8.8406215,8.8641353 c 0,-0.396209 0.172827,-0.7289305 0.5173054,-0.9958129 C 9.7024053,7.6002639 10.173858,7.4662348 10.773462,7.4650592 a 3.3037008,3.3037008 0 0 1 1.301495,0.2363144 L 11.816303,8.5502249 A 3.2931195,3.2931195 0 0 0 11.395405,8.4009118 2.2902524,2.2902524 0 0 0 10.754651,8.3221402 c -0.249246,0 -0.435007,0.045852 -0.554927,0.1352048 -0.121097,0.090528 -0.182233,0.1975167 -0.182233,0.3197889 0,0.1457861 0.07289,0.2621798 0.219855,0.3491811 0.146962,0.088177 0.385628,0.1892868 0.717174,0.3056806 0.453818,0.1528402 0.787714,0.3409514 1.000516,0.5643332 a 1.1627617,1.1627617 0 0 1 0.319788,0.8347432 c 0,0.391506 -0.166949,0.728929 -0.502021,1.0158 -0.333898,0.285694 -0.848852,0.427952 -1.544862,0.427952 -0.2939239,0 -0.5702122,-0.03056 -0.8312163,-0.09171 A 3.1285223,3.1285223 0 0 1 8.784188,11.986779 L 9.022854,11.120292 Z M 6.2834865,12.274824 V 8.2786396 H 4.7938819 V 7.4650592 H 8.784188 V 8.2786396 H 7.2969348 V 12.276 H 6.2834865 Z"
     fill="#82aaff"
     id="path2"
     style="stroke-width:1.17569" />
</svg>
