<?xml version="1.0" encoding="UTF-8" standalone="no"?>
<svg
   width="16"
   height="16"
   fill="none"
   version="1.1"
   id="svg2"
   sodipodi:docname="webpack.svg"
   inkscape:version="1.3.2 (091e20e, 2023-11-25, custom)"
   xmlns:inkscape="http://www.inkscape.org/namespaces/inkscape"
   xmlns:sodipodi="http://sodipodi.sourceforge.net/DTD/sodipodi-0.dtd"
   xmlns="http://www.w3.org/2000/svg"
   xmlns:svg="http://www.w3.org/2000/svg">
  <defs
     id="defs2" />
  <sodipodi:namedview
     id="namedview2"
     pagecolor="#ffffff"
     bordercolor="#000000"
     borderopacity="0.25"
     inkscape:showpageshadow="2"
     inkscape:pageopacity="0.0"
     inkscape:pagecheckerboard="0"
     inkscape:deskcolor="#d1d1d1"
     inkscape:zoom="50.8125"
     inkscape:cx="8"
     inkscape:cy="7.9803198"
     inkscape:window-width="1920"
     inkscape:window-height="1057"
     inkscape:window-x="1912"
     inkscape:window-y="-8"
     inkscape:window-maximized="1"
     inkscape:current-layer="svg2" />
  <g
     fill-rule="evenodd"
     clip-rule="evenodd"
     id="g2"
     transform="matrix(1.2325586,0,0,1.2325586,-1.8317478,-1.9768567)">
    <path
       d="M 7.876,3 A 0.603,0.603 0 0 0 7.546,3.09 L 2.972,5.337 A 0.498,0.498 0 0 0 2.666,5.783 v 5.436 c 0,0.193 0.12,0.36 0.306,0.446 l 4.574,2.245 a 0.61,0.61 0 0 0 0.33,0.091 c 0.122,0 0.238,-0.03 0.33,-0.09 l 4.574,-2.246 a 0.498,0.498 0 0 0 0.307,-0.446 V 5.782 A 0.498,0.498 0 0 0 12.78,5.336 L 8.206,3.091 A 0.603,0.603 0 0 0 7.876,3 Z m 0,1.088 4.054,1.992 v 1.064 h -0.01 v 3.503 h 0.01 V 10.92 L 7.877,12.912 3.824,10.92 V 6.08 L 7.877,4.088 Z M 5.04,6.57 7.876,5.14 10.713,6.57 7.876,8.002 5.04,6.571 Z M 4.982,7.708 v 1.81 l 2.316,1.168 V 8.876 L 4.981,7.708 Z m 3.474,1.167 2.316,-1.167 v 1.81 l -2.316,1.168 v -1.81 z"
       fill="#89ddff"
       id="path1" />
    <path
       d="M 7.876,5.14 5.04,6.57 7.877,8.002 10.714,6.571 Z M 4.981,7.709 v 2.696 l 2.316,1.167 V 8.876 L 4.981,7.71 Z m 3.474,1.167 2.316,-1.167 v 2.696 l -2.316,1.167 z"
       fill="#3965bd"
       id="path2" />
  </g>
</svg>
