<?xml version="1.0" encoding="UTF-8" standalone="no"?>
<!-- Copyright 2000-2022 JetBrains s.r.o. and contributors. Use of this source code is governed by the Apache 2.0 license. -->

<svg
   width="16"
   height="16"
   viewBox="0 0 16 16"
   fill="none"
   version="1.1"
   id="svg1"
   sodipodi:docname="yarn.svg"
   inkscape:version="1.3.2 (091e20e, 2023-11-25, custom)"
   xmlns:inkscape="http://www.inkscape.org/namespaces/inkscape"
   xmlns:sodipodi="http://sodipodi.sourceforge.net/DTD/sodipodi-0.dtd"
   xmlns="http://www.w3.org/2000/svg"
   xmlns:svg="http://www.w3.org/2000/svg">
  <defs
     id="defs1" />
  <sodipodi:namedview
     id="namedview1"
     pagecolor="#ffffff"
     bordercolor="#000000"
     borderopacity="0.25"
     inkscape:showpageshadow="2"
     inkscape:pageopacity="0.0"
     inkscape:pagecheckerboard="0"
     inkscape:deskcolor="#d1d1d1"
     inkscape:zoom="53.8125"
     inkscape:cx="8"
     inkscape:cy="8"
     inkscape:window-width="1920"
     inkscape:window-height="1057"
     inkscape:window-x="1912"
     inkscape:window-y="-8"
     inkscape:window-maximized="1"
     inkscape:current-layer="svg1" />
  <path
     d="m 13.600832,11.858301 c -0.657352,0.148485 -1.276251,0.43334 -1.816595,0.836028 -0.833642,0.523275 -1.734368,0.931011 -2.6775104,1.212379 -0.1156398,0.134994 -0.2755221,0.22447 -0.4510697,0.252368 -0.9808416,0.139491 -1.9682816,0.227866 -2.9583095,0.264758 -0.533663,0.0041 -0.8608335,-0.137656 -0.9516862,-0.356069 -0.037424,-0.08847 -0.056815,-0.183541 -0.057044,-0.279533 -2.202e-4,-0.09608 0.018721,-0.191158 0.055732,-0.279808 0.037011,-0.08865 0.09133,-0.169041 0.1597905,-0.2364 0.06847,-0.06736 0.1496867,-0.120403 0.2388967,-0.155918 -0.08341,-0.05121 -0.1623143,-0.10939 -0.2358499,-0.173905 -0.078473,-0.07846 -0.161525,-0.235942 -0.186303,-0.178126 -0.1032417,0.25246 -0.1573954,0.869157 -0.434551,1.147221 -0.3808562,0.384977 -1.101272,0.256498 -1.5271048,0.03304 -0.4675792,-0.248238 0.033037,-0.831898 0.033037,-0.831898 -0.040076,0.02028 -0.083841,0.0323 -0.1286712,0.03542 -0.044839,0.003 -0.089825,-0.0029 -0.1322962,-0.01762 -0.04248,-0.01468 -0.081556,-0.03781 -0.114924,-0.06791 -0.033368,-0.0301 -0.060339,-0.06663 -0.079299,-0.107279 C 2.0933783,12.548139 1.9861355,12.073962 2.0310112,11.601803 2.1485782,11.084126 2.4300379,10.6183 2.8335614,10.273427 2.7700012,9.5858926 2.8735916,8.8932099 3.1354951,8.254378 3.4814143,7.5884372 3.9788739,7.0130186 4.587807,6.5744664 c 0,0 -0.8892824,-0.9851824 -0.5579822,-1.870794 C 4.2450355,4.1245831 4.3317677,4.1287127 4.4024309,4.1034759 4.6522849,4.026453 4.8805269,3.8917433 5.0687021,3.7102307 5.3218782,3.4314966 5.6367056,3.2157995 5.9880484,3.0803648 6.3394004,2.9449209 6.7175402,2.8934836 7.0923029,2.930155 c 0,0 0.5396281,-1.629894 1.0338298,-1.3132798 0.2733931,0.4196292 0.5088117,0.8628158 0.7034383,1.3242923 0,0 0.5878075,-0.3432304 0.6538822,-0.2152107 C 9.8214342,3.6237922 9.9045048,4.5976226 9.7234418,5.539728 9.5098371,6.4438496 9.102808,7.290936 8.5303904,8.0226486 8.4684454,8.1258995 9.2420971,8.45307 9.7303246,9.8062699 c 0.4510514,1.2389461 0.049556,2.2759511 0.1202192,2.3915821 0.012389,0.02065 0.016519,0.02891 0.016519,0.02891 0,0 0.5171252,0.0413 1.5560582,-0.600178 0.574758,-0.419849 1.253399,-0.674329 1.962509,-0.735998 0.127194,-0.02542 0.259251,0 0.367999,0.07085 0.108656,0.07076 0.185285,0.181339 0.213366,0.307982 0.02817,0.126551 0.0056,0.259159 -0.06286,0.369375 -0.06846,0.110125 -0.177301,0.189139 -0.303301,0.219974 z"
     fill="#498DB7"
     id="path1"
     style="fill:#89ddff;fill-opacity:1;stroke-width:0.917704" />
</svg>
