<svg width="16" height="16" viewBox="0 0 16 16" fill="none" xmlns="http://www.w3.org/2000/svg">
<path fill-rule="evenodd" clip-rule="evenodd" d="M1 16H16V9H1V16Z" fill="#F26522" fill-opacity="0.7"/>
<path fill-rule="evenodd" clip-rule="evenodd" d="M7 1L3 5H7V1Z" fill="#9AA7B0" fill-opacity="0.8"/>
<path fill-rule="evenodd" clip-rule="evenodd" d="M8 1V6H3V8H13V1H8Z" fill="#9AA7B0" fill-opacity="0.8"/>
<path fill-rule="evenodd" clip-rule="evenodd" d="M2 15V10H4.1157C4.70413 10 5.16033 10.1786 5.46446 10.5071C5.72231 10.7857 5.86116 11.1786 5.86116 11.65V11.6643C5.86116 12.4714 5.45785 12.9786 4.86942 13.2143L6 15H4.80992L3.81818 13.4H3.01818V15H2ZM3.01818 12.4286H4.04959C4.54545 12.4286 4.82975 12.1429 4.82975 11.7214V11.7071C4.82975 11.2357 4.52562 10.9929 4.02975 10.9929H3.01818V12.4286Z" fill="#231F20" fill-opacity="0.7"/>
<path fill-rule="evenodd" clip-rule="evenodd" d="M12.9728 11.5015C12.9728 11.1331 13.284 11 13.845 11C13.853 11 15 11 15 11V10C15 10 13.894 10 13.86 10C12.778 10 12 10.4592 12 11.45C12 12.3145 12.4196 12.6905 13.4713 12.9161C14.2416 13.0813 14.4962 13.2286 14.4962 13.548C14.4962 13.8674 14.1384 14 13.4713 14C13.4553 14 12.3 14 12.3 14V15C12.3 15 13.4633 15 13.4713 15C15.5 15 15.5 14 15.5 13.548C15.5 12.9161 15.0203 12.4207 14.1587 12.1469C13.2971 11.873 12.9728 11.87 12.9728 11.5015Z" fill="#231F20" fill-opacity="0.7"/>
<path d="M7 15H9.37857C10.5071 15 11.25 14.5429 11.25 13.6286V13.6143C11.25 12.9429 10.8929 12.6071 10.3143 12.3857C10.6714 12.1857 10.9714 11.8714 10.9714 11.3071V11.2929C10.9714 10.95 10.8571 10.6714 10.6286 10.4429C10.3429 10.1571 9.89286 10 9.32143 10H7V15ZM9.87857 11.4929C9.87857 11.8643 9.57143 12.0214 9.08571 12.0214H8.07143V10.9643H9.15714C9.62143 10.9643 9.87857 11.15 9.87857 11.4786V11.4929ZM10.1571 13.4786V13.4929C10.1571 13.8643 9.86429 14.0357 9.37857 14.0357H8.07143V12.9357H9.34286C9.90714 12.9357 10.1571 13.1429 10.1571 13.4786Z" fill="#231F20" fill-opacity="0.7"/>
</svg>
