<?xml version="1.0" encoding="UTF-8" standalone="no"?>
<!-- Generated by Pixelmator Pro 3.3.8 -->

<svg
   width="16"
   height="16"
   viewBox="0 0 16 16"
   version="1.1"
   id="svg1"
   sodipodi:docname="vscode-ignore.svg"
   inkscape:version="1.3.2 (091e20e, 2023-11-25, custom)"
   xmlns:inkscape="http://www.inkscape.org/namespaces/inkscape"
   xmlns:sodipodi="http://sodipodi.sourceforge.net/DTD/sodipodi-0.dtd"
   xmlns="http://www.w3.org/2000/svg"
   xmlns:svg="http://www.w3.org/2000/svg">
  <defs
     id="defs1" />
  <sodipodi:namedview
     id="namedview1"
     pagecolor="#ffffff"
     bordercolor="#000000"
     borderopacity="0.25"
     inkscape:showpageshadow="2"
     inkscape:pageopacity="0.0"
     inkscape:pagecheckerboard="0"
     inkscape:deskcolor="#d1d1d1"
     inkscape:zoom="53.8125"
     inkscape:cx="8"
     inkscape:cy="8"
     inkscape:window-width="1920"
     inkscape:window-height="1057"
     inkscape:window-x="1912"
     inkscape:window-y="-8"
     inkscape:window-maximized="1"
     inkscape:current-layer="svg1" />
  <g
     id="Group"
     transform="matrix(0.91173055,0,0,0.91173055,0.70615563,0.70234573)">
    <path
       id="vscode"
       fill="#9aa8b0"
       stroke="none"
       opacity="0.62"
       d="M 15.450858,1.600755 12.156006,0.00325 c -0.32658,-0.148517 -0.707735,-0.110401 -0.99844,0.099845 0,0 -0.09984,0 -0.149766,0.099844 L 4.717628,5.943969 1.971919,3.847244 c -0.24961,-0.199688 -0.599064,-0.199688 -0.848674,0 L 0.274571,4.74584 c -0.299532,0.24961 -0.299532,0.698909 0,0.99844 L 2.620905,7.841003 0.224649,9.98765 c -0.299532,0.299532 -0.299532,0.74883 0,0.99844 l 0.898596,0.848674 c 0.24961,0.199687 0.599064,0.249609 0.848674,0 l 2.745709,-1.99688 6.290172,5.591264 0.149766,0.09984 c 0.290705,0.210246 0.67186,0.248362 0.99844,0.09984 l 3.24493,-1.597504 C 15.759368,13.874964 15.993519,13.523738 16,13.132736 V 2.499352 C 15.993519,2.108348 15.759368,1.757124 15.400936,1.600755 Z M 12.00624,11.48531 7.213728,7.841003 12.00624,4.196699 Z" />
    <path
       id="Path"
       fill="#e03f3f"
       fill-rule="evenodd"
       stroke="none"
       d="M 11.154249,14.607251 C 11.542743,14.85587 12.004539,15 12.5,15 13.880712,15 15,13.880712 15,12.5 15,12.004539 14.85587,11.542743 14.607251,11.154249 Z m -0.7615,-0.7615 3.453002,-3.453002 C 13.457257,10.14413 12.995461,10 12.5,10 11.119288,10 10,11.119288 10,12.5 c 0,0.495461 0.14413,0.957257 0.392749,1.345751 z M 12.5,16 C 10.567003,16 9,14.432997 9,12.5 9,10.567003 10.567003,9 12.5,9 14.432997,9 16,10.567003 16,12.5 16,14.432997 14.432997,16 12.5,16 Z" />
  </g>
</svg>
